<svg xmlns="http://www.w3.org/2000/svg" xmlns:xlink="http://www.w3.org/1999/xlink" width="2000" zoomAndPan="magnify" viewBox="0 0 1500 1499.999933" height="2000" preserveAspectRatio="xMidYMid meet" version="1.0"><defs><filter x="0%" y="0%" width="100%" height="100%" id="f5853b9c4b"><feColorMatrix values="0 0 0 0 1 0 0 0 0 1 0 0 0 0 1 0 0 0 1 0" color-interpolation-filters="sRGB"/></filter><g/><clipPath id="40c444912a"><path d="M 565.617188 576.007812 L 879 576.007812 L 879 866.257812 L 565.617188 866.257812 Z M 565.617188 576.007812 " clip-rule="nonzero"/></clipPath><mask id="33af8a98a6"><g filter="url(#f5853b9c4b)"><rect x="-150" width="1800" fill="#000000" y="-149.999993" height="1799.99992" fill-opacity="0.44"/></g></mask><clipPath id="8ac19074ca"><path d="M 0.617188 0.882812 L 313.878906 0.882812 L 313.878906 291.132812 L 0.617188 291.132812 Z M 0.617188 0.882812 " clip-rule="nonzero"/></clipPath><clipPath id="8dc1be1422"><rect x="0" width="314" y="0" height="292"/></clipPath></defs><g clip-path="url(#40c444912a)"><path fill="#00bf63" d="M 876.632812 613.871094 C 876.539062 612.769531 875.964844 611.8125 875.050781 611.1875 C 874.140625 610.566406 872.992188 610.421875 871.984375 610.757812 C 864.652344 613.105469 849.601562 616.988281 831.386719 616.507812 C 816.574219 616.171875 802.820312 613.011719 790.40625 607.164062 C 776.554688 600.597656 764.378906 590.578125 754.21875 577.398438 C 753.496094 576.484375 752.445312 576.007812 751.292969 576.007812 C 750.144531 576.007812 749.089844 576.582031 748.464844 577.539062 C 739.597656 590.289062 728.285156 600.019531 714.816406 606.445312 C 702.691406 612.242188 688.789062 615.40625 673.5 615.886719 C 654.519531 616.460938 638.316406 612.769531 630.410156 610.566406 C 629.402344 610.277344 628.300781 610.46875 627.390625 611.042969 C 626.527344 611.667969 625.953125 612.625 625.855469 613.679688 C 624.371094 629.882812 623.746094 645.460938 624.035156 660.367188 C 591.535156 662.1875 565.652344 689.222656 565.652344 722.152344 C 565.652344 756.277344 593.40625 784.03125 627.535156 784.03125 C 636.066406 784.03125 644.214844 782.304688 651.59375 779.140625 C 652.363281 780.53125 653.128906 781.96875 653.894531 783.359375 C 675.464844 821.753906 707.820312 849.601562 750 865.992188 C 750.429688 866.136719 750.863281 866.234375 751.292969 866.234375 C 751.675781 866.234375 752.109375 866.183594 752.492188 866.042969 C 800.039062 849.167969 833.160156 820.9375 853.820312 779.714844 C 874.859375 737.726562 882.339844 683.519531 876.632812 613.871094 Z M 648.816406 773.675781 C 642.25 776.410156 635.058594 777.894531 627.535156 777.894531 C 596.808594 777.894531 571.789062 752.875 571.789062 722.152344 C 571.789062 692.527344 595.035156 668.226562 624.226562 666.5 C 625.328125 666.453125 626.429688 666.40625 627.582031 666.40625 C 628.875 666.40625 630.121094 666.453125 631.414062 666.550781 C 660.367188 668.515625 683.324219 692.71875 683.324219 722.152344 C 683.324219 742.761719 672.109375 760.785156 655.429688 770.417969 C 653.320312 771.664062 651.066406 772.765625 648.816406 773.675781 Z M 751.339844 858.851562 C 722.4375 847.347656 683.757812 823.765625 658.210938 775.882812 C 662.761719 773.292969 666.933594 770.128906 670.671875 766.488281 C 671.582031 765.625 672.398438 764.714844 673.261719 763.804688 L 703.3125 763.804688 L 725.503906 804.496094 L 744.871094 804.496094 C 745.589844 807.324219 748.175781 809.480469 751.246094 809.480469 C 754.886719 809.480469 757.8125 806.511719 757.8125 802.914062 C 757.8125 799.273438 754.886719 796.347656 751.246094 796.347656 C 748.175781 796.347656 745.589844 798.457031 744.871094 801.332031 L 727.421875 801.332031 L 705.183594 760.640625 L 675.992188 760.640625 C 676.949219 759.441406 677.910156 758.148438 678.773438 756.902344 C 679.347656 756.039062 679.921875 755.128906 680.449219 754.21875 L 715.632812 754.21875 L 725.363281 770.847656 C 724.117188 772.046875 723.300781 773.773438 723.300781 775.640625 C 723.300781 779.238281 726.273438 782.210938 729.867188 782.210938 C 733.511719 782.210938 736.433594 779.238281 736.433594 775.640625 C 736.433594 772 733.460938 769.074219 729.867188 769.074219 C 729.292969 769.074219 728.71875 769.171875 728.140625 769.316406 L 717.453125 750.957031 L 682.269531 750.957031 C 682.941406 749.710938 683.566406 748.464844 684.09375 747.21875 C 684.476562 746.355469 684.859375 745.445312 685.195312 744.535156 L 762.460938 744.535156 L 773.339844 751.773438 L 812.40625 751.773438 C 813.125 754.648438 815.714844 756.757812 818.78125 756.757812 C 822.421875 756.757812 825.347656 753.785156 825.347656 750.191406 C 825.347656 746.546875 822.375 743.625 818.78125 743.625 C 815.714844 743.625 813.125 745.734375 812.40625 748.609375 L 774.300781 748.609375 L 763.417969 741.371094 L 686.34375 741.371094 C 686.730469 740.125 687.113281 738.878906 687.449219 737.632812 C 687.6875 736.769531 687.878906 735.859375 688.070312 734.949219 L 775.835938 734.949219 C 776.554688 737.777344 779.140625 739.933594 782.207031 739.933594 C 785.851562 739.933594 788.777344 736.960938 788.777344 733.367188 C 788.777344 729.722656 785.804688 726.800781 782.207031 726.800781 C 779.140625 726.800781 776.554688 728.910156 775.835938 731.785156 L 688.695312 731.785156 C 688.886719 730.539062 689.03125 729.292969 689.171875 728.046875 C 689.269531 727.183594 689.316406 726.273438 689.367188 725.363281 L 734.375 725.363281 L 743.71875 711.75 C 744.390625 711.988281 745.15625 712.132812 745.925781 712.132812 C 749.566406 712.132812 752.492188 709.160156 752.492188 705.566406 C 752.492188 701.921875 749.519531 699 745.925781 699 C 742.328125 699 739.359375 701.972656 739.359375 705.566406 C 739.359375 707.242188 739.980469 708.777344 741.035156 709.976562 L 732.648438 722.152344 L 689.460938 722.152344 C 689.460938 720.90625 689.414062 719.609375 689.316406 718.410156 C 689.269531 717.5 689.171875 716.636719 689.078125 715.726562 L 720.519531 715.726562 L 734.707031 691.859375 L 841.070312 691.859375 C 841.789062 694.6875 844.375 696.84375 847.445312 696.84375 C 851.085938 696.84375 854.011719 693.871094 854.011719 690.277344 C 854.011719 686.632812 851.085938 683.710938 847.445312 683.710938 C 844.375 683.710938 841.789062 685.816406 841.070312 688.695312 L 732.886719 688.695312 L 718.699219 712.5625 L 688.644531 712.5625 C 688.453125 711.316406 688.214844 710.023438 687.925781 708.824219 C 687.734375 707.914062 687.496094 707.050781 687.257812 706.140625 L 712.230469 706.140625 L 728.574219 677.621094 L 774.011719 677.621094 C 774.730469 680.449219 777.320312 682.605469 780.386719 682.605469 C 784.03125 682.605469 786.953125 679.636719 786.953125 676.039062 C 786.953125 672.445312 783.984375 669.472656 780.386719 669.472656 C 777.320312 669.472656 774.730469 671.582031 774.011719 674.457031 L 726.703125 674.457031 L 710.40625 702.976562 L 686.34375 702.976562 C 685.914062 701.683594 685.484375 700.4375 684.957031 699.238281 C 684.621094 698.328125 684.238281 697.464844 683.804688 696.554688 L 709.304688 696.554688 L 727.757812 664.441406 L 804.976562 664.441406 C 805.695312 667.269531 808.285156 669.425781 811.351562 669.425781 C 814.996094 669.425781 817.917969 666.453125 817.917969 662.859375 C 817.917969 659.214844 814.945312 656.292969 811.351562 656.292969 C 808.285156 656.292969 805.695312 658.402344 804.976562 661.277344 L 725.890625 661.277344 L 707.433594 693.390625 L 682.175781 693.390625 C 681.503906 692.097656 680.785156 690.851562 680.019531 689.652344 C 679.445312 688.742188 678.867188 687.878906 678.246094 686.96875 L 697.273438 686.96875 L 724.117188 637.070312 L 757.859375 637.070312 C 758.578125 639.898438 761.167969 642.058594 764.234375 642.058594 C 767.878906 642.058594 770.800781 639.085938 770.800781 635.488281 C 770.800781 631.894531 767.878906 628.921875 764.234375 628.921875 C 761.167969 628.921875 758.578125 631.03125 757.859375 633.910156 L 722.246094 633.910156 L 695.40625 683.851562 L 675.894531 683.851562 C 665.253906 670.574219 649.292969 661.757812 631.222656 660.703125 C 630.984375 647.570312 631.414062 633.667969 632.660156 618.859375 C 641.816406 621.160156 656.675781 623.890625 673.789062 623.363281 C 690.085938 622.882812 704.941406 619.433594 717.933594 613.203125 C 731.113281 606.875 742.425781 597.671875 751.53125 585.738281 C 761.742188 598.007812 773.820312 607.449219 787.335938 613.871094 C 800.664062 620.152344 815.425781 623.554688 831.195312 623.9375 C 847.394531 624.320312 861.199219 621.492188 869.828125 619.097656 C 879.605469 749.757812 841.882812 826.113281 751.339844 858.851562 Z M 747.84375 802.867188 C 747.84375 801 749.375 799.511719 751.195312 799.511719 C 753.066406 799.511719 754.550781 801 754.550781 802.867188 C 754.550781 804.738281 753.019531 806.222656 751.195312 806.222656 C 749.375 806.269531 747.84375 804.738281 747.84375 802.867188 Z M 726.511719 775.59375 C 726.511719 773.726562 728.046875 772.238281 729.867188 772.238281 C 731.738281 772.238281 733.222656 773.773438 733.222656 775.59375 C 733.222656 777.464844 731.6875 778.949219 729.867188 778.949219 C 728.046875 778.949219 726.511719 777.414062 726.511719 775.59375 Z M 815.425781 750.144531 C 815.425781 748.273438 816.960938 746.789062 818.78125 746.789062 C 820.648438 746.789062 822.136719 748.320312 822.136719 750.144531 C 822.136719 752.011719 820.648438 753.496094 818.78125 753.496094 C 816.910156 753.546875 815.425781 752.011719 815.425781 750.144531 Z M 778.855469 733.320312 C 778.855469 731.449219 780.339844 729.964844 782.207031 729.964844 C 784.078125 729.964844 785.5625 731.496094 785.5625 733.320312 C 785.5625 735.1875 784.078125 736.675781 782.207031 736.675781 C 780.339844 736.675781 778.855469 735.140625 778.855469 733.320312 Z M 742.523438 705.519531 C 742.523438 703.648438 744.007812 702.164062 745.875 702.164062 C 747.746094 702.164062 749.230469 703.648438 749.230469 705.519531 C 749.230469 707.386719 747.699219 708.875 745.875 708.875 C 744.007812 708.875 742.523438 707.339844 742.523438 705.519531 Z M 844.039062 690.132812 C 844.039062 688.261719 845.574219 686.777344 847.394531 686.777344 C 849.265625 686.777344 850.75 688.3125 850.75 690.132812 C 850.75 692 849.21875 693.488281 847.394531 693.488281 C 845.574219 693.488281 844.039062 692 844.039062 690.132812 Z M 777.03125 675.898438 C 777.03125 674.027344 778.566406 672.542969 780.386719 672.542969 C 782.257812 672.542969 783.742188 674.027344 783.742188 675.898438 C 783.742188 677.765625 782.257812 679.25 780.386719 679.25 C 778.519531 679.25 777.03125 677.765625 777.03125 675.898438 Z M 807.996094 662.667969 C 807.996094 660.796875 809.480469 659.3125 811.351562 659.3125 C 813.222656 659.3125 814.707031 660.847656 814.707031 662.667969 C 814.707031 664.535156 813.171875 666.023438 811.351562 666.023438 C 809.480469 666.023438 807.996094 664.488281 807.996094 662.667969 Z M 760.878906 635.203125 C 760.878906 633.332031 762.414062 631.847656 764.234375 631.847656 C 766.105469 631.847656 767.589844 633.382812 767.589844 635.203125 C 767.589844 637.070312 766.054688 638.558594 764.234375 638.558594 C 762.367188 638.558594 760.878906 637.070312 760.878906 635.203125 Z M 760.878906 635.203125 " fill-opacity="1" fill-rule="nonzero"/></g><path fill="#00bf63" d="M 650.253906 706.957031 L 646.515625 706.957031 L 646.515625 698.472656 C 646.515625 689.652344 640.378906 682.222656 632.136719 680.304688 C 630.746094 679.96875 629.308594 679.777344 627.820312 679.777344 C 626.863281 679.777344 625.902344 679.828125 624.945312 680.019531 C 615.980469 681.410156 609.128906 689.171875 609.128906 698.472656 L 609.128906 706.957031 L 604.8125 706.957031 C 604.382812 706.957031 603.949219 707.003906 603.519531 707.101562 C 600.738281 707.675781 598.726562 710.167969 598.726562 713.042969 L 598.726562 737.296875 C 598.726562 742.136719 599.972656 746.308594 602.371094 749.617188 C 604.144531 752.058594 606.585938 754.023438 609.65625 755.511719 C 614.257812 757.765625 620.246094 758.914062 627.535156 758.914062 C 632.902344 758.914062 637.550781 758.292969 641.480469 757.042969 C 643.734375 756.324219 645.746094 755.414062 647.519531 754.3125 C 647.710938 754.167969 647.90625 754.074219 648.097656 753.929688 C 653.511719 750.285156 656.292969 744.679688 656.292969 737.296875 L 656.292969 713.042969 C 656.292969 709.6875 653.609375 706.957031 650.253906 706.957031 Z M 615.3125 698.472656 C 615.3125 692.386719 619.671875 687.304688 625.425781 686.203125 C 626.191406 686.058594 627.007812 685.960938 627.773438 685.960938 C 629.5 685.960938 631.175781 686.296875 632.660156 686.96875 C 637.121094 688.886719 640.234375 693.296875 640.234375 698.425781 L 640.234375 706.910156 L 615.3125 706.910156 Z M 652.457031 737.296875 C 652.457031 742.953125 650.539062 747.265625 646.707031 750.191406 C 644.933594 751.582031 642.726562 752.683594 640.140625 753.449219 C 636.6875 754.503906 632.46875 755.03125 627.535156 755.03125 C 620.871094 755.03125 615.40625 754.023438 611.378906 752.058594 C 608.886719 750.863281 606.921875 749.28125 605.53125 747.316406 C 603.617188 744.679688 602.65625 741.324219 602.65625 737.296875 L 602.65625 713.042969 C 602.65625 711.988281 603.375 711.125 604.382812 710.886719 C 604.527344 710.839844 604.71875 710.839844 604.863281 710.839844 L 650.300781 710.839844 C 651.5 710.839844 652.503906 711.84375 652.503906 713.042969 L 652.503906 737.296875 Z M 652.457031 737.296875 " fill-opacity="1" fill-rule="nonzero"/><path fill="#00bf63" d="M 629.785156 731.832031 C 629.882812 731.6875 629.929688 731.546875 629.976562 731.402344 L 631.65625 724.929688 L 631.992188 723.683594 C 632.039062 723.445312 632.039062 723.207031 631.941406 723.011719 C 631.941406 722.964844 631.894531 722.917969 631.847656 722.871094 C 631.847656 722.871094 631.800781 722.820312 631.800781 722.820312 C 631.800781 722.820312 631.75 722.773438 631.75 722.773438 C 631.703125 722.726562 631.65625 722.679688 631.609375 722.679688 C 631.558594 722.628906 631.511719 722.628906 631.464844 722.582031 C 631.414062 722.582031 631.320312 722.535156 631.273438 722.535156 C 631.222656 722.535156 631.128906 722.535156 631.082031 722.484375 C 631.03125 722.484375 631.03125 722.484375 630.984375 722.484375 L 624.707031 722.484375 C 623.988281 722.484375 623.507812 723.0625 623.699219 723.78125 L 625.710938 731.496094 C 625.761719 731.640625 625.808594 731.785156 625.902344 731.929688 C 624.5625 732.648438 623.652344 734.039062 623.652344 735.667969 C 623.652344 738.015625 625.519531 739.886719 627.867188 739.886719 C 630.21875 739.886719 632.085938 738.015625 632.085938 735.667969 C 632.039062 733.941406 631.128906 732.550781 629.785156 731.832031 Z M 629.785156 731.832031 " fill-opacity="1" fill-rule="nonzero"/><g fill="#004aad" fill-opacity="1"><g transform="translate(432.958561, 993.282134)"><g><path d="M 50.578125 0 L 14.859375 0 C 12.890625 0 11.90625 -0.976562 11.90625 -2.9375 L 11.90625 -106.234375 C 11.90625 -108.148438 12.890625 -109.109375 14.859375 -109.109375 L 50 -109.109375 C 55.832031 -109.109375 61.46875 -108.164062 66.90625 -106.28125 C 72.34375 -104.394531 77.378906 -101.757812 82.015625 -98.375 C 86.648438 -94.988281 90.707031 -91.015625 94.1875 -86.453125 C 97.664062 -81.898438 100.375 -76.914062 102.3125 -71.5 C 104.25 -66.082031 105.21875 -60.429688 105.21875 -54.546875 C 105.21875 -48.472656 104.285156 -42.738281 102.421875 -37.34375 C 100.554688 -31.957031 97.929688 -27.03125 94.546875 -22.5625 C 91.171875 -18.101562 87.203125 -14.234375 82.640625 -10.953125 C 78.078125 -7.671875 73.078125 -5.085938 67.640625 -3.203125 C 62.203125 -1.316406 56.515625 -0.25 50.578125 0 Z M 33.59375 -19.84375 L 48.078125 -19.84375 C 52.984375 -19.84375 57.578125 -20.710938 61.859375 -22.453125 C 66.148438 -24.203125 69.925781 -26.644531 73.1875 -29.78125 C 76.445312 -32.914062 78.992188 -36.585938 80.828125 -40.796875 C 82.671875 -45.015625 83.59375 -49.597656 83.59375 -54.546875 C 83.59375 -59.503906 82.671875 -64.101562 80.828125 -68.34375 C 78.992188 -72.582031 76.445312 -76.269531 73.1875 -79.40625 C 69.925781 -82.539062 66.148438 -84.976562 61.859375 -86.71875 C 57.578125 -88.457031 52.984375 -89.328125 48.078125 -89.328125 L 33.59375 -89.328125 Z M 33.59375 -19.84375 "/></g></g></g><g fill="#004aad" fill-opacity="1"><g transform="translate(542.508505, 993.282134)"><g><path d="M 40.734375 1.625 C 36.515625 1.625 32.40625 0.925781 28.40625 -0.46875 C 24.414062 -1.875 20.816406 -3.882812 17.609375 -6.5 C 14.398438 -9.125 11.835938 -12.257812 9.921875 -15.90625 C 8.015625 -19.5625 7.0625 -23.644531 7.0625 -28.15625 L 7.0625 -67.859375 C 7.0625 -69.179688 7.460938 -70.234375 8.265625 -71.015625 C 9.078125 -71.804688 10.097656 -72.203125 11.328125 -72.203125 L 23.375 -72.203125 C 24.894531 -72.203125 25.960938 -71.859375 26.578125 -71.171875 C 27.191406 -70.484375 27.5 -69.429688 27.5 -68.015625 L 27.5 -30.8125 C 27.5 -28.207031 28.070312 -25.910156 29.21875 -23.921875 C 30.375 -21.941406 31.957031 -20.398438 33.96875 -19.296875 C 35.976562 -18.191406 38.28125 -17.640625 40.875 -17.640625 C 43.476562 -17.640625 45.785156 -18.191406 47.796875 -19.296875 C 49.804688 -20.398438 51.382812 -21.941406 52.53125 -23.921875 C 53.6875 -25.910156 54.265625 -28.207031 54.265625 -30.8125 L 54.265625 -68.015625 C 54.265625 -69.429688 54.566406 -70.484375 55.171875 -71.171875 C 55.785156 -71.859375 56.851562 -72.203125 58.375 -72.203125 L 70.4375 -72.203125 C 71.664062 -72.203125 72.679688 -71.804688 73.484375 -71.015625 C 74.296875 -70.234375 74.703125 -69.179688 74.703125 -67.859375 L 74.703125 -28.15625 C 74.703125 -23.644531 73.734375 -19.5625 71.796875 -15.90625 C 69.859375 -12.257812 67.257812 -9.125 64 -6.5 C 60.738281 -3.882812 57.097656 -1.875 53.078125 -0.46875 C 49.066406 0.925781 44.953125 1.625 40.734375 1.625 Z M 40.734375 1.625 "/></g></g></g><g fill="#004aad" fill-opacity="1"><g transform="translate(624.340106, 993.282134)"><g><path d="M 37.640625 0 L 23.453125 0 C 21.203125 0 20.078125 -1.125 20.078125 -3.375 L 20.078125 -53.75 L 4.703125 -53.75 C 2.890625 -53.75 1.984375 -54.753906 1.984375 -56.765625 L 1.984375 -69.328125 C 1.984375 -71.191406 2.890625 -72.125 4.703125 -72.125 L 56.765625 -72.125 C 58.578125 -72.125 59.484375 -71.191406 59.484375 -69.328125 L 59.484375 -56.765625 C 59.484375 -56.078125 59.238281 -55.398438 58.75 -54.734375 C 58.257812 -54.078125 57.597656 -53.75 56.765625 -53.75 L 41.25 -53.75 L 41.25 -3.375 C 41.25 -1.125 40.046875 0 37.640625 0 Z M 37.640625 0 "/></g></g></g><g fill="#004aad" fill-opacity="1"><g transform="translate(686.246869, 993.282134)"><g><path d="M 46.90625 0 L 31.765625 0 C 29.953125 0 29.046875 -0.859375 29.046875 -2.578125 L 29.046875 -29.40625 L 3.53125 -68.75 C 3.039062 -69.382812 2.796875 -69.992188 2.796875 -70.578125 C 2.796875 -71.660156 3.429688 -72.203125 4.703125 -72.203125 L 22.5 -72.203125 C 23.132812 -72.203125 23.679688 -72.015625 24.140625 -71.640625 C 24.609375 -71.273438 25.140625 -70.628906 25.734375 -69.703125 L 39.265625 -46.546875 L 52.71875 -69.625 C 53.695312 -71.195312 55.046875 -72.054688 56.765625 -72.203125 L 73.8125 -72.203125 C 75.132812 -72.203125 75.796875 -71.660156 75.796875 -70.578125 C 75.796875 -70.140625 75.625 -69.648438 75.28125 -69.109375 L 49.484375 -29.40625 L 49.484375 -2.578125 C 49.484375 -0.859375 48.625 0 46.90625 0 Z M 46.90625 0 "/></g></g></g><g fill="#00bf63" fill-opacity="1"><g transform="translate(763.087439, 993.282134)"><g><path d="M 62.9375 1.46875 C 56.757812 1.46875 50.863281 0.523438 45.25 -1.359375 C 39.632812 -3.242188 34.460938 -5.898438 29.734375 -9.328125 C 25.003906 -12.765625 20.898438 -16.820312 17.421875 -21.5 C 13.941406 -26.1875 11.242188 -31.347656 9.328125 -36.984375 C 7.421875 -42.617188 6.46875 -48.570312 6.46875 -54.84375 C 6.46875 -61.070312 7.410156 -66.976562 9.296875 -72.5625 C 11.179688 -78.15625 13.828125 -83.28125 17.234375 -87.9375 C 20.640625 -92.59375 24.679688 -96.625 29.359375 -100.03125 C 34.046875 -103.4375 39.207031 -106.066406 44.84375 -107.921875 C 50.476562 -109.785156 56.4375 -110.71875 62.71875 -110.71875 C 69.132812 -110.71875 75.023438 -109.800781 80.390625 -107.96875 C 85.765625 -106.132812 90.828125 -103.398438 95.578125 -99.765625 C 96.515625 -99.035156 96.984375 -98.28125 96.984375 -97.5 C 96.984375 -97 96.785156 -96.484375 96.390625 -95.953125 L 87.71875 -83.453125 C 87.125 -82.660156 86.390625 -82.265625 85.515625 -82.265625 C 84.867188 -82.265625 84.226562 -82.515625 83.59375 -83.015625 C 80.507812 -85.316406 77.273438 -87.09375 73.890625 -88.34375 C 70.503906 -89.59375 66.851562 -90.21875 62.9375 -90.21875 C 57.882812 -90.21875 53.203125 -89.332031 48.890625 -87.5625 C 44.578125 -85.800781 40.800781 -83.328125 37.5625 -80.140625 C 34.332031 -76.953125 31.8125 -73.203125 30 -68.890625 C 28.1875 -64.578125 27.28125 -59.894531 27.28125 -54.84375 C 27.28125 -49.988281 28.160156 -45.378906 29.921875 -41.015625 C 31.691406 -36.660156 34.15625 -32.78125 37.3125 -29.375 C 40.476562 -25.96875 44.179688 -23.28125 48.421875 -21.3125 C 52.660156 -19.351562 57.253906 -18.375 62.203125 -18.375 C 65.335938 -18.375 68.460938 -18.78125 71.578125 -19.59375 C 74.691406 -20.40625 77.398438 -21.664062 79.703125 -23.375 L 79.703125 -45.875 C 79.703125 -47.882812 80.679688 -48.890625 82.640625 -48.890625 L 95.734375 -48.890625 C 96.566406 -48.890625 97.25 -48.65625 97.78125 -48.1875 C 98.320312 -47.726562 98.59375 -46.957031 98.59375 -45.875 L 98.59375 -12.578125 C 98.59375 -11.253906 98.078125 -10.175781 97.046875 -9.34375 C 92.046875 -5.90625 86.628906 -3.242188 80.796875 -1.359375 C 74.960938 0.523438 69.007812 1.46875 62.9375 1.46875 Z M 62.9375 1.46875 "/></g></g></g><g fill="#00bf63" fill-opacity="1"><g transform="translate(869.843491, 993.282134)"><g><path d="M 28.3125 0 L 15.515625 0 C 13.160156 0 11.984375 -1.222656 11.984375 -3.671875 L 11.984375 -68.8125 C 11.984375 -71.019531 13.109375 -72.125 15.359375 -72.125 L 47.125 -72.125 C 50.507812 -72.125 53.632812 -71.484375 56.5 -70.203125 C 59.363281 -68.929688 61.863281 -67.15625 64 -64.875 C 66.132812 -62.601562 67.800781 -60.007812 69 -57.09375 C 70.195312 -54.175781 70.796875 -51.050781 70.796875 -47.71875 C 70.796875 -43.695312 69.835938 -39.882812 67.921875 -36.28125 C 66.015625 -32.675781 63.421875 -29.75 60.140625 -27.5 L 70.953125 -4.484375 C 71.242188 -3.847656 71.390625 -3.3125 71.390625 -2.875 C 71.390625 -2.132812 71.117188 -1.503906 70.578125 -0.984375 C 70.046875 -0.472656 69.382812 -0.171875 68.59375 -0.078125 C 67.8125 -0.0234375 66.851562 0 65.71875 0 C 64.59375 0 63.320312 0 61.90625 0 L 55.140625 0 C 52.835938 0 51.023438 -1.25 49.703125 -3.75 L 41.546875 -23.59375 L 31.765625 -23.59375 L 31.765625 -3.375 C 31.765625 -2.445312 31.46875 -1.648438 30.875 -0.984375 C 30.289062 -0.328125 29.4375 0 28.3125 0 Z M 31.765625 -40.21875 L 40.875 -40.21875 C 42.445312 -40.21875 43.941406 -40.472656 45.359375 -40.984375 C 46.785156 -41.503906 47.9375 -42.3125 48.8125 -43.40625 C 49.695312 -44.507812 50.140625 -45.945312 50.140625 -47.71875 C 50.140625 -50.457031 49.234375 -52.460938 47.421875 -53.734375 C 45.609375 -55.015625 43.425781 -55.65625 40.875 -55.65625 L 31.765625 -55.65625 Z M 31.765625 -40.21875 "/></g></g></g><g fill="#00bf63" fill-opacity="1"><g transform="translate(945.940263, 993.282134)"><g><path d="M 27.859375 0 L 15.140625 0 C 12.835938 0 11.6875 -1.148438 11.6875 -3.453125 L 11.6875 -68.75 C 11.6875 -69.769531 11.992188 -70.613281 12.609375 -71.28125 C 13.222656 -71.945312 14.066406 -72.28125 15.140625 -72.28125 L 27.859375 -72.28125 C 28.796875 -72.28125 29.644531 -71.9375 30.40625 -71.25 C 31.164062 -70.5625 31.546875 -69.726562 31.546875 -68.75 L 31.546875 -3.453125 C 31.546875 -1.148438 30.316406 0 27.859375 0 Z M 27.859375 0 "/></g></g></g><g fill="#00bf63" fill-opacity="1"><g transform="translate(989.245584, 993.282134)"><g><path d="M 42.5625 0 L 14.5625 0 C 12.59375 -0.0507812 11.609375 -1.175781 11.609375 -3.375 L 11.609375 -68.8125 C 11.609375 -71.125 12.765625 -72.28125 15.078125 -72.28125 L 42.125 -72.28125 C 47.125 -72.175781 51.742188 -71.179688 55.984375 -69.296875 C 60.222656 -67.410156 63.882812 -64.820312 66.96875 -61.53125 C 70.0625 -58.25 72.46875 -54.453125 74.1875 -50.140625 C 75.90625 -45.828125 76.765625 -41.195312 76.765625 -36.25 C 76.765625 -31.445312 75.929688 -26.863281 74.265625 -22.5 C 72.597656 -18.132812 70.226562 -14.257812 67.15625 -10.875 C 64.09375 -7.5 60.476562 -4.84375 56.3125 -2.90625 C 52.144531 -0.96875 47.5625 0 42.5625 0 Z M 31.609375 -17.0625 L 39.40625 -17.0625 C 43.175781 -17.0625 46.394531 -17.929688 49.0625 -19.671875 C 51.738281 -21.410156 53.785156 -23.75 55.203125 -26.6875 C 56.628906 -29.625 57.34375 -32.882812 57.34375 -36.46875 C 57.34375 -40.09375 56.570312 -43.335938 55.03125 -46.203125 C 53.488281 -49.078125 51.332031 -51.347656 48.5625 -53.015625 C 45.789062 -54.679688 42.566406 -55.515625 38.890625 -55.515625 L 31.609375 -55.515625 Z M 31.609375 -17.0625 "/></g></g></g><g mask="url(#33af8a98a6)"><g transform="matrix(1, 0, 0, 1, 565, 604)"><g clip-path="url(#8dc1be1422)"><g clip-path="url(#8ac19074ca)"><path fill="#004aad" d="M 311.632812 38.75 C 311.539062 37.648438 310.964844 36.6875 310.050781 36.066406 C 309.140625 35.441406 307.992188 35.300781 306.984375 35.636719 C 299.652344 37.984375 284.601562 41.867188 266.386719 41.386719 C 251.574219 41.050781 237.820312 37.886719 225.40625 32.039062 C 211.554688 25.472656 199.378906 15.457031 189.21875 2.273438 C 188.496094 1.363281 187.445312 0.882812 186.292969 0.882812 C 185.144531 0.882812 184.089844 1.460938 183.464844 2.417969 C 174.597656 15.167969 163.285156 24.898438 149.816406 31.320312 C 137.691406 37.121094 123.789062 40.285156 108.5 40.761719 C 89.519531 41.339844 73.316406 37.648438 65.410156 35.441406 C 64.402344 35.15625 63.300781 35.347656 62.390625 35.921875 C 61.527344 36.546875 60.953125 37.503906 60.855469 38.558594 C 59.371094 54.757812 58.746094 70.335938 59.035156 85.246094 C 26.535156 87.066406 0.652344 114.097656 0.652344 147.027344 C 0.652344 181.15625 28.40625 208.90625 62.535156 208.90625 C 71.066406 208.90625 79.214844 207.183594 86.59375 204.019531 C 87.363281 205.410156 88.128906 206.847656 88.894531 208.238281 C 110.464844 246.628906 142.820312 274.480469 185 290.871094 C 185.429688 291.015625 185.863281 291.109375 186.292969 291.109375 C 186.675781 291.109375 187.109375 291.0625 187.492188 290.917969 C 235.039062 274.046875 268.160156 245.816406 288.820312 204.59375 C 309.859375 162.605469 317.339844 108.394531 311.632812 38.75 Z M 83.816406 198.554688 C 77.25 201.285156 70.058594 202.773438 62.535156 202.773438 C 31.808594 202.773438 6.789062 177.753906 6.789062 147.027344 C 6.789062 117.40625 30.035156 93.105469 59.226562 91.378906 C 60.328125 91.332031 61.429688 91.285156 62.582031 91.285156 C 63.875 91.285156 65.121094 91.332031 66.414062 91.425781 C 95.367188 93.390625 118.324219 117.597656 118.324219 147.027344 C 118.324219 167.640625 107.109375 185.660156 90.429688 195.296875 C 88.320312 196.542969 86.066406 197.644531 83.816406 198.554688 Z M 186.339844 283.730469 C 157.4375 272.226562 118.757812 248.644531 93.210938 200.757812 C 97.761719 198.171875 101.933594 195.007812 105.671875 191.363281 C 106.582031 190.503906 107.398438 189.589844 108.261719 188.679688 L 138.3125 188.679688 L 160.503906 229.375 L 179.871094 229.375 C 180.589844 232.203125 183.175781 234.359375 186.246094 234.359375 C 189.886719 234.359375 192.8125 231.386719 192.8125 227.792969 C 192.8125 224.148438 189.886719 221.226562 186.246094 221.226562 C 183.175781 221.226562 180.589844 223.335938 179.871094 226.210938 L 162.421875 226.210938 L 140.183594 185.515625 L 110.992188 185.515625 C 111.949219 184.320312 112.910156 183.023438 113.773438 181.777344 C 114.347656 180.914062 114.921875 180.003906 115.449219 179.09375 L 150.632812 179.09375 L 160.363281 195.726562 C 159.117188 196.925781 158.300781 198.652344 158.300781 200.519531 C 158.300781 204.113281 161.273438 207.085938 164.867188 207.085938 C 168.511719 207.085938 171.433594 204.113281 171.433594 200.519531 C 171.433594 196.878906 168.460938 193.953125 164.867188 193.953125 C 164.292969 193.953125 163.71875 194.050781 163.140625 194.191406 L 152.453125 175.835938 L 117.269531 175.835938 C 117.941406 174.589844 118.566406 173.34375 119.09375 172.097656 C 119.476562 171.234375 119.859375 170.324219 120.195312 169.414062 L 197.460938 169.414062 L 208.339844 176.648438 L 247.40625 176.648438 C 248.125 179.527344 250.714844 181.636719 253.78125 181.636719 C 257.421875 181.636719 260.347656 178.664062 260.347656 175.066406 C 260.347656 171.425781 257.375 168.5 253.78125 168.5 C 250.714844 168.5 248.125 170.609375 247.40625 173.488281 L 209.300781 173.488281 L 198.417969 166.25 L 121.34375 166.25 C 121.730469 165.003906 122.113281 163.757812 122.449219 162.511719 C 122.6875 161.648438 122.878906 160.738281 123.070312 159.824219 L 210.835938 159.824219 C 211.554688 162.652344 214.140625 164.8125 217.210938 164.8125 C 220.851562 164.8125 223.777344 161.839844 223.777344 158.246094 C 223.777344 154.601562 220.804688 151.675781 217.210938 151.675781 C 214.140625 151.675781 211.554688 153.785156 210.835938 156.664062 L 123.695312 156.664062 C 123.886719 155.417969 124.03125 154.171875 124.171875 152.921875 C 124.269531 152.0625 124.316406 151.148438 124.367188 150.238281 L 169.375 150.238281 L 178.71875 136.628906 C 179.390625 136.867188 180.15625 137.011719 180.925781 137.011719 C 184.566406 137.011719 187.492188 134.039062 187.492188 130.445312 C 187.492188 126.800781 184.519531 123.878906 180.925781 123.878906 C 177.328125 123.878906 174.359375 126.847656 174.359375 130.445312 C 174.359375 132.121094 174.980469 133.65625 176.035156 134.851562 L 167.648438 147.027344 L 124.460938 147.027344 C 124.460938 145.78125 124.414062 144.488281 124.316406 143.289062 C 124.269531 142.378906 124.171875 141.515625 124.078125 140.605469 L 155.519531 140.605469 L 169.707031 116.734375 L 276.070312 116.734375 C 276.789062 119.5625 279.375 121.71875 282.445312 121.71875 C 286.085938 121.71875 289.011719 118.75 289.011719 115.152344 C 289.011719 111.511719 286.085938 108.585938 282.445312 108.585938 C 279.375 108.585938 276.789062 110.695312 276.070312 113.570312 L 167.886719 113.570312 L 153.699219 137.441406 L 123.644531 137.441406 C 123.453125 136.195312 123.214844 134.902344 122.925781 133.703125 C 122.734375 132.792969 122.496094 131.929688 122.257812 131.019531 L 147.230469 131.019531 L 163.574219 102.5 L 209.011719 102.5 C 209.730469 105.328125 212.320312 107.484375 215.386719 107.484375 C 219.03125 107.484375 221.953125 104.511719 221.953125 100.917969 C 221.953125 97.324219 218.984375 94.351562 215.386719 94.351562 C 212.320312 94.351562 209.730469 96.460938 209.011719 99.335938 L 161.703125 99.335938 L 145.40625 127.855469 L 121.34375 127.855469 C 120.914062 126.5625 120.484375 125.316406 119.957031 124.117188 C 119.621094 123.207031 119.238281 122.34375 118.804688 121.433594 L 144.304688 121.433594 L 162.757812 89.316406 L 239.976562 89.316406 C 240.695312 92.144531 243.285156 94.304688 246.351562 94.304688 C 249.996094 94.304688 252.917969 91.332031 252.917969 87.738281 C 252.917969 84.09375 249.945312 81.171875 246.351562 81.171875 C 243.285156 81.171875 240.695312 83.277344 239.976562 86.15625 L 160.890625 86.15625 L 142.433594 118.269531 L 117.175781 118.269531 C 116.503906 116.976562 115.785156 115.730469 115.019531 114.53125 C 114.445312 113.621094 113.867188 112.757812 113.246094 111.847656 L 132.273438 111.847656 L 159.117188 61.949219 L 192.859375 61.949219 C 193.578125 64.777344 196.167969 66.933594 199.234375 66.933594 C 202.878906 66.933594 205.800781 63.960938 205.800781 60.367188 C 205.800781 56.773438 202.878906 53.800781 199.234375 53.800781 C 196.167969 53.800781 193.578125 55.910156 192.859375 58.785156 L 157.246094 58.785156 L 130.40625 108.730469 L 110.894531 108.730469 C 100.253906 95.453125 84.292969 86.632812 66.222656 85.578125 C 65.984375 72.445312 66.414062 58.546875 67.660156 43.734375 C 76.816406 46.035156 91.675781 48.769531 108.789062 48.242188 C 125.085938 47.761719 139.941406 44.308594 152.933594 38.078125 C 166.113281 31.753906 177.425781 22.550781 186.53125 10.613281 C 196.742188 22.886719 208.820312 32.328125 222.335938 38.75 C 235.664062 45.03125 250.425781 48.433594 266.195312 48.816406 C 282.394531 49.199219 296.199219 46.371094 304.828125 43.976562 C 314.605469 174.636719 276.882812 250.992188 186.339844 283.730469 Z M 182.84375 227.746094 C 182.84375 225.875 184.375 224.390625 186.195312 224.390625 C 188.066406 224.390625 189.550781 225.875 189.550781 227.746094 C 189.550781 229.613281 188.019531 231.101562 186.195312 231.101562 C 184.375 231.148438 182.84375 229.613281 182.84375 227.746094 Z M 161.511719 200.472656 C 161.511719 198.601562 163.046875 197.117188 164.867188 197.117188 C 166.738281 197.117188 168.222656 198.652344 168.222656 200.472656 C 168.222656 202.339844 166.6875 203.828125 164.867188 203.828125 C 163.046875 203.828125 161.511719 202.292969 161.511719 200.472656 Z M 250.425781 175.019531 C 250.425781 173.152344 251.960938 171.664062 253.78125 171.664062 C 255.648438 171.664062 257.136719 173.199219 257.136719 175.019531 C 257.136719 176.890625 255.648438 178.375 253.78125 178.375 C 251.910156 178.421875 250.425781 176.890625 250.425781 175.019531 Z M 213.855469 158.195312 C 213.855469 156.328125 215.339844 154.839844 217.210938 154.839844 C 219.078125 154.839844 220.5625 156.375 220.5625 158.195312 C 220.5625 160.066406 219.078125 161.550781 217.210938 161.550781 C 215.339844 161.550781 213.855469 160.019531 213.855469 158.195312 Z M 177.523438 130.394531 C 177.523438 128.527344 179.007812 127.039062 180.875 127.039062 C 182.746094 127.039062 184.230469 128.527344 184.230469 130.394531 C 184.230469 132.265625 182.699219 133.75 180.875 133.75 C 179.007812 133.75 177.523438 132.21875 177.523438 130.394531 Z M 279.039062 115.011719 C 279.039062 113.140625 280.574219 111.65625 282.394531 111.65625 C 284.265625 111.65625 285.75 113.1875 285.75 115.011719 C 285.75 116.878906 284.21875 118.363281 282.394531 118.363281 C 280.574219 118.363281 279.039062 116.878906 279.039062 115.011719 Z M 212.03125 100.773438 C 212.03125 98.90625 213.566406 97.417969 215.386719 97.417969 C 217.257812 97.417969 218.742188 98.90625 218.742188 100.773438 C 218.742188 102.644531 217.257812 104.128906 215.386719 104.128906 C 213.519531 104.128906 212.03125 102.644531 212.03125 100.773438 Z M 242.996094 87.542969 C 242.996094 85.675781 244.480469 84.191406 246.351562 84.191406 C 248.222656 84.191406 249.707031 85.722656 249.707031 87.542969 C 249.707031 89.414062 248.171875 90.898438 246.351562 90.898438 C 244.480469 90.898438 242.996094 89.367188 242.996094 87.542969 Z M 195.878906 60.078125 C 195.878906 58.210938 197.414062 56.726562 199.234375 56.726562 C 201.105469 56.726562 202.589844 58.257812 202.589844 60.078125 C 202.589844 61.949219 201.054688 63.433594 199.234375 63.433594 C 197.367188 63.433594 195.878906 61.949219 195.878906 60.078125 Z M 195.878906 60.078125 " fill-opacity="1" fill-rule="nonzero"/></g><path fill="#004aad" d="M 85.253906 131.832031 L 81.515625 131.832031 L 81.515625 123.351562 C 81.515625 114.53125 75.378906 107.101562 67.136719 105.183594 C 65.746094 104.847656 64.308594 104.65625 62.820312 104.65625 C 61.863281 104.65625 60.902344 104.703125 59.945312 104.894531 C 50.980469 106.285156 44.128906 114.050781 44.128906 123.351562 L 44.128906 131.832031 L 39.8125 131.832031 C 39.382812 131.832031 38.949219 131.882812 38.519531 131.976562 C 35.738281 132.554688 33.726562 135.046875 33.726562 137.921875 L 33.726562 162.175781 C 33.726562 167.015625 34.972656 171.1875 37.371094 174.492188 C 39.144531 176.9375 41.585938 178.902344 44.65625 180.386719 C 49.257812 182.640625 55.246094 183.792969 62.535156 183.792969 C 67.902344 183.792969 72.550781 183.167969 76.480469 181.921875 C 78.734375 181.203125 80.746094 180.292969 82.519531 179.191406 C 82.710938 179.046875 82.90625 178.949219 83.097656 178.808594 C 88.511719 175.164062 91.292969 169.554688 91.292969 162.175781 L 91.292969 137.921875 C 91.292969 134.566406 88.609375 131.832031 85.253906 131.832031 Z M 50.3125 123.351562 C 50.3125 117.261719 54.671875 112.183594 60.425781 111.078125 C 61.191406 110.9375 62.007812 110.839844 62.773438 110.839844 C 64.5 110.839844 66.175781 111.175781 67.660156 111.847656 C 72.121094 113.761719 75.234375 118.171875 75.234375 123.300781 L 75.234375 131.785156 L 50.3125 131.785156 Z M 87.457031 162.175781 C 87.457031 167.832031 85.539062 172.144531 81.707031 175.066406 C 79.933594 176.457031 77.726562 177.5625 75.140625 178.328125 C 71.6875 179.382812 67.46875 179.910156 62.535156 179.910156 C 55.871094 179.910156 50.40625 178.902344 46.378906 176.9375 C 43.886719 175.738281 41.921875 174.15625 40.53125 172.191406 C 38.617188 169.554688 37.65625 166.199219 37.65625 162.175781 L 37.65625 137.921875 C 37.65625 136.867188 38.375 136.003906 39.382812 135.765625 C 39.527344 135.714844 39.71875 135.714844 39.863281 135.714844 L 85.300781 135.714844 C 86.5 135.714844 87.503906 136.722656 87.503906 137.921875 L 87.503906 162.175781 Z M 87.457031 162.175781 " fill-opacity="1" fill-rule="nonzero"/><path fill="#004aad" d="M 64.785156 156.710938 C 64.882812 156.566406 64.929688 156.421875 64.976562 156.277344 L 66.65625 149.808594 L 66.992188 148.5625 C 67.039062 148.324219 67.039062 148.082031 66.941406 147.890625 C 66.941406 147.84375 66.894531 147.796875 66.847656 147.746094 C 66.847656 147.746094 66.800781 147.699219 66.800781 147.699219 C 66.800781 147.699219 66.75 147.652344 66.75 147.652344 C 66.703125 147.601562 66.65625 147.554688 66.609375 147.554688 C 66.558594 147.507812 66.511719 147.507812 66.464844 147.460938 C 66.414062 147.460938 66.320312 147.410156 66.273438 147.410156 C 66.222656 147.410156 66.128906 147.410156 66.082031 147.363281 C 66.03125 147.363281 66.03125 147.363281 65.984375 147.363281 L 59.707031 147.363281 C 58.988281 147.363281 58.507812 147.9375 58.699219 148.65625 L 60.710938 156.375 C 60.761719 156.519531 60.808594 156.664062 60.902344 156.804688 C 59.5625 157.523438 58.652344 158.914062 58.652344 160.542969 C 58.652344 162.894531 60.519531 164.761719 62.867188 164.761719 C 65.21875 164.761719 67.085938 162.894531 67.085938 160.542969 C 67.039062 158.820312 66.128906 157.429688 64.785156 156.710938 Z M 64.785156 156.710938 " fill-opacity="1" fill-rule="nonzero"/></g></g></g><g fill="#ffffff" fill-opacity="1"><g transform="translate(454.341029, 1059.373137)"><g><path d="M 28.140625 0.65625 C 25.378906 0.65625 22.742188 0.234375 20.234375 -0.609375 C 17.722656 -1.453125 15.410156 -2.640625 13.296875 -4.171875 C 11.179688 -5.710938 9.34375 -7.53125 7.78125 -9.625 C 6.226562 -11.71875 5.023438 -14.023438 4.171875 -16.546875 C 3.316406 -19.066406 2.890625 -21.726562 2.890625 -24.53125 C 2.890625 -27.3125 3.3125 -29.953125 4.15625 -32.453125 C 5 -34.953125 6.179688 -37.242188 7.703125 -39.328125 C 9.234375 -41.410156 11.046875 -43.210938 13.140625 -44.734375 C 15.234375 -46.253906 17.539062 -47.429688 20.0625 -48.265625 C 22.582031 -49.097656 25.242188 -49.515625 28.046875 -49.515625 C 30.921875 -49.515625 33.554688 -49.101562 35.953125 -48.28125 C 38.359375 -47.46875 40.625 -46.25 42.75 -44.625 C 43.164062 -44.289062 43.375 -43.953125 43.375 -43.609375 C 43.375 -43.390625 43.285156 -43.15625 43.109375 -42.90625 L 39.234375 -37.328125 C 38.960938 -36.972656 38.632812 -36.796875 38.25 -36.796875 C 37.957031 -36.796875 37.671875 -36.90625 37.390625 -37.125 C 36.003906 -38.15625 34.554688 -38.945312 33.046875 -39.5 C 31.535156 -40.0625 29.898438 -40.34375 28.140625 -40.34375 C 25.890625 -40.34375 23.796875 -39.945312 21.859375 -39.15625 C 19.929688 -38.375 18.242188 -37.269531 16.796875 -35.84375 C 15.359375 -34.414062 14.234375 -32.738281 13.421875 -30.8125 C 12.609375 -28.882812 12.203125 -26.789062 12.203125 -24.53125 C 12.203125 -22.363281 12.59375 -20.300781 13.375 -18.34375 C 14.164062 -16.394531 15.269531 -14.65625 16.6875 -13.125 C 18.101562 -11.601562 19.757812 -10.40625 21.65625 -9.53125 C 23.550781 -8.65625 25.601562 -8.21875 27.8125 -8.21875 C 29.21875 -8.21875 30.613281 -8.398438 32 -8.765625 C 33.394531 -9.128906 34.609375 -9.691406 35.640625 -10.453125 L 35.640625 -20.515625 C 35.640625 -21.410156 36.078125 -21.859375 36.953125 -21.859375 L 42.8125 -21.859375 C 43.1875 -21.859375 43.492188 -21.753906 43.734375 -21.546875 C 43.972656 -21.347656 44.09375 -21.003906 44.09375 -20.515625 L 44.09375 -5.625 C 44.09375 -5.03125 43.863281 -4.546875 43.40625 -4.171875 C 41.164062 -2.640625 38.738281 -1.453125 36.125 -0.609375 C 33.519531 0.234375 30.859375 0.65625 28.140625 0.65625 Z M 28.140625 0.65625 "/></g></g></g><g fill="#ffffff" fill-opacity="1"><g transform="translate(502.086863, 1059.373137)"><g><path d="M 12.65625 0 L 6.9375 0 C 5.882812 0 5.359375 -0.546875 5.359375 -1.640625 L 5.359375 -30.78125 C 5.359375 -31.769531 5.863281 -32.265625 6.875 -32.265625 L 21.078125 -32.265625 C 22.585938 -32.265625 23.984375 -31.976562 25.265625 -31.40625 C 26.546875 -30.832031 27.664062 -30.035156 28.625 -29.015625 C 29.582031 -27.992188 30.328125 -26.832031 30.859375 -25.53125 C 31.398438 -24.226562 31.671875 -22.832031 31.671875 -21.34375 C 31.671875 -19.539062 31.238281 -17.832031 30.375 -16.21875 C 29.519531 -14.613281 28.359375 -13.304688 26.890625 -12.296875 L 31.734375 -2 C 31.859375 -1.71875 31.921875 -1.476562 31.921875 -1.28125 C 31.921875 -0.957031 31.800781 -0.675781 31.5625 -0.4375 C 31.320312 -0.207031 31.03125 -0.0703125 30.6875 -0.03125 C 30.332031 -0.0078125 29.898438 0 29.390625 0 C 28.890625 0 28.320312 0 27.6875 0 L 24.65625 0 C 23.625 0 22.816406 -0.554688 22.234375 -1.671875 L 18.578125 -10.5625 L 14.203125 -10.5625 L 14.203125 -1.515625 C 14.203125 -1.097656 14.070312 -0.738281 13.8125 -0.4375 C 13.550781 -0.144531 13.164062 0 12.65625 0 Z M 14.203125 -17.984375 L 18.28125 -17.984375 C 18.976562 -17.984375 19.644531 -18.097656 20.28125 -18.328125 C 20.925781 -18.554688 21.441406 -18.914062 21.828125 -19.40625 C 22.222656 -19.90625 22.421875 -20.550781 22.421875 -21.34375 C 22.421875 -22.570312 22.015625 -23.46875 21.203125 -24.03125 C 20.398438 -24.601562 19.425781 -24.890625 18.28125 -24.890625 L 14.203125 -24.890625 Z M 14.203125 -17.984375 "/></g></g></g><g fill="#ffffff" fill-opacity="1"><g transform="translate(536.120571, 1059.373137)"><g><path d="M 12.46875 0 L 6.78125 0 C 5.75 0 5.234375 -0.515625 5.234375 -1.546875 L 5.234375 -30.75 C 5.234375 -31.207031 5.367188 -31.582031 5.640625 -31.875 C 5.910156 -32.175781 6.289062 -32.328125 6.78125 -32.328125 L 12.46875 -32.328125 C 12.882812 -32.328125 13.257812 -32.171875 13.59375 -31.859375 C 13.9375 -31.554688 14.109375 -31.1875 14.109375 -30.75 L 14.109375 -1.546875 C 14.109375 -0.515625 13.5625 0 12.46875 0 Z M 12.46875 0 "/></g></g></g><g fill="#ffffff" fill-opacity="1"><g transform="translate(555.488539, 1059.373137)"><g><path d="M 12.71875 0 L 7 0 C 5.925781 0 5.390625 -0.546875 5.390625 -1.640625 L 5.390625 -30.78125 C 5.390625 -31.769531 5.90625 -32.265625 6.9375 -32.265625 L 19.953125 -32.265625 C 21.472656 -32.265625 22.878906 -31.957031 24.171875 -31.34375 C 25.460938 -30.726562 26.582031 -29.894531 27.53125 -28.84375 C 28.488281 -27.789062 29.226562 -26.585938 29.75 -25.234375 C 30.28125 -23.890625 30.546875 -22.484375 30.546875 -21.015625 C 30.546875 -19.566406 30.28125 -18.175781 29.75 -16.84375 C 29.226562 -15.519531 28.492188 -14.335938 27.546875 -13.296875 C 26.609375 -12.253906 25.507812 -11.425781 24.25 -10.8125 C 22.988281 -10.195312 21.613281 -9.890625 20.125 -9.890625 L 14.265625 -9.890625 L 14.265625 -1.515625 C 14.265625 -1.078125 14.132812 -0.710938 13.875 -0.421875 C 13.613281 -0.140625 13.226562 0 12.71875 0 Z M 14.265625 -17.65625 L 17.890625 -17.65625 C 18.503906 -17.65625 19.0625 -17.804688 19.5625 -18.109375 C 20.070312 -18.421875 20.484375 -18.828125 20.796875 -19.328125 C 21.117188 -19.835938 21.28125 -20.398438 21.28125 -21.015625 C 21.28125 -21.972656 20.953125 -22.800781 20.296875 -23.5 C 19.648438 -24.207031 18.847656 -24.5625 17.890625 -24.5625 L 14.265625 -24.5625 Z M 14.265625 -17.65625 "/></g></g></g><g fill="#ffffff" fill-opacity="1"><g transform="translate(587.910987, 1059.373137)"><g/></g></g><g fill="#ffffff" fill-opacity="1"><g transform="translate(608.495622, 1059.373137)"><g><path d="M 19.265625 0.6875 C 16.941406 0.6875 14.75 0.257812 12.6875 -0.59375 C 10.632812 -1.445312 8.820312 -2.628906 7.25 -4.140625 C 5.6875 -5.648438 4.457031 -7.421875 3.5625 -9.453125 C 2.675781 -11.484375 2.234375 -13.679688 2.234375 -16.046875 C 2.234375 -18.410156 2.675781 -20.613281 3.5625 -22.65625 C 4.457031 -24.695312 5.679688 -26.488281 7.234375 -28.03125 C 8.785156 -29.570312 10.59375 -30.773438 12.65625 -31.640625 C 14.71875 -32.515625 16.921875 -32.953125 19.265625 -32.953125 C 21.609375 -32.953125 23.8125 -32.515625 25.875 -31.640625 C 27.9375 -30.773438 29.742188 -29.570312 31.296875 -28.03125 C 32.859375 -26.488281 34.082031 -24.695312 34.96875 -22.65625 C 35.851562 -20.613281 36.296875 -18.410156 36.296875 -16.046875 C 36.296875 -13.679688 35.851562 -11.484375 34.96875 -9.453125 C 34.082031 -7.421875 32.859375 -5.648438 31.296875 -4.140625 C 29.742188 -2.628906 27.9375 -1.445312 25.875 -0.59375 C 23.8125 0.257812 21.609375 0.6875 19.265625 0.6875 Z M 19.296875 -7.4375 C 20.878906 -7.4375 22.300781 -7.820312 23.5625 -8.59375 C 24.820312 -9.375 25.8125 -10.414062 26.53125 -11.71875 C 27.257812 -13.019531 27.625 -14.453125 27.625 -16.015625 C 27.625 -17.171875 27.414062 -18.265625 27 -19.296875 C 26.582031 -20.328125 25.992188 -21.242188 25.234375 -22.046875 C 24.484375 -22.847656 23.601562 -23.476562 22.59375 -23.9375 C 21.582031 -24.394531 20.484375 -24.625 19.296875 -24.625 C 18.117188 -24.625 17.03125 -24.394531 16.03125 -23.9375 C 15.03125 -23.476562 14.148438 -22.847656 13.390625 -22.046875 C 12.640625 -21.242188 12.054688 -20.328125 11.640625 -19.296875 C 11.222656 -18.265625 11.015625 -17.171875 11.015625 -16.015625 C 11.015625 -14.484375 11.375 -13.0625 12.09375 -11.75 C 12.820312 -10.445312 13.8125 -9.398438 15.0625 -8.609375 C 16.3125 -7.828125 17.722656 -7.4375 19.296875 -7.4375 Z M 19.296875 -7.4375 "/></g></g></g><g fill="#ffffff" fill-opacity="1"><g transform="translate(647.297327, 1059.373137)"><g><path d="M 12.71875 0 L 7 0 C 5.925781 0 5.390625 -0.546875 5.390625 -1.640625 L 5.390625 -30.78125 C 5.390625 -31.769531 5.90625 -32.265625 6.9375 -32.265625 L 19.953125 -32.265625 C 21.472656 -32.265625 22.878906 -31.957031 24.171875 -31.34375 C 25.460938 -30.726562 26.582031 -29.894531 27.53125 -28.84375 C 28.488281 -27.789062 29.226562 -26.585938 29.75 -25.234375 C 30.28125 -23.890625 30.546875 -22.484375 30.546875 -21.015625 C 30.546875 -19.566406 30.28125 -18.175781 29.75 -16.84375 C 29.226562 -15.519531 28.492188 -14.335938 27.546875 -13.296875 C 26.609375 -12.253906 25.507812 -11.425781 24.25 -10.8125 C 22.988281 -10.195312 21.613281 -9.890625 20.125 -9.890625 L 14.265625 -9.890625 L 14.265625 -1.515625 C 14.265625 -1.078125 14.132812 -0.710938 13.875 -0.421875 C 13.613281 -0.140625 13.226562 0 12.71875 0 Z M 14.265625 -17.65625 L 17.890625 -17.65625 C 18.503906 -17.65625 19.0625 -17.804688 19.5625 -18.109375 C 20.070312 -18.421875 20.484375 -18.828125 20.796875 -19.328125 C 21.117188 -19.835938 21.28125 -20.398438 21.28125 -21.015625 C 21.28125 -21.972656 20.953125 -22.800781 20.296875 -23.5 C 19.648438 -24.207031 18.847656 -24.5625 17.890625 -24.5625 L 14.265625 -24.5625 Z M 14.265625 -17.65625 "/></g></g></g><g fill="#ffffff" fill-opacity="1"><g transform="translate(679.719786, 1059.373137)"><g/></g></g><g fill="#ffffff" fill-opacity="1"><g transform="translate(700.304433, 1059.373137)"><g><path d="M 28.4375 0 L 6.515625 0 C 5.660156 -0.0390625 5.234375 -0.546875 5.234375 -1.515625 L 5.234375 -30.71875 C 5.234375 -31.75 5.734375 -32.265625 6.734375 -32.265625 L 27.71875 -32.265625 C 28.175781 -32.265625 28.546875 -32.117188 28.828125 -31.828125 C 29.117188 -31.546875 29.265625 -31.175781 29.265625 -30.71875 L 29.265625 -26.203125 C 29.265625 -25.703125 29.117188 -25.3125 28.828125 -25.03125 C 28.546875 -24.757812 28.175781 -24.625 27.71875 -24.625 L 14.078125 -24.625 L 14.078125 -19.734375 L 24.859375 -19.734375 C 25.316406 -19.734375 25.679688 -19.585938 25.953125 -19.296875 C 26.234375 -19.015625 26.375 -18.625 26.375 -18.125 L 26.375 -14.140625 C 26.375 -13.679688 26.234375 -13.304688 25.953125 -13.015625 C 25.679688 -12.734375 25.316406 -12.59375 24.859375 -12.59375 L 14.078125 -12.59375 L 14.078125 -7.828125 L 28.4375 -7.828125 C 28.90625 -7.828125 29.28125 -7.675781 29.5625 -7.375 C 29.84375 -7.082031 29.984375 -6.6875 29.984375 -6.1875 L 29.984375 -1.515625 C 29.984375 -1.078125 29.847656 -0.710938 29.578125 -0.421875 C 29.304688 -0.140625 28.925781 0 28.4375 0 Z M 28.4375 0 "/></g></g></g><g fill="#ffffff" fill-opacity="1"><g transform="translate(732.858385, 1059.373137)"><g><path d="M 28.875 0 L 6.671875 0 C 5.640625 0 5.125 -0.503906 5.125 -1.515625 L 5.125 -30.71875 C 5.125 -31.175781 5.265625 -31.546875 5.546875 -31.828125 C 5.835938 -32.117188 6.234375 -32.265625 6.734375 -32.265625 L 12.53125 -32.265625 C 12.96875 -32.265625 13.328125 -32.125 13.609375 -31.84375 C 13.898438 -31.570312 14.046875 -31.195312 14.046875 -30.71875 L 14.046875 -8.84375 L 28.875 -8.84375 C 29.332031 -8.84375 29.703125 -8.691406 29.984375 -8.390625 C 30.273438 -8.097656 30.421875 -7.703125 30.421875 -7.203125 L 30.421875 -1.515625 C 30.421875 -1.078125 30.273438 -0.710938 29.984375 -0.421875 C 29.703125 -0.140625 29.332031 0 28.875 0 Z M 28.875 0 "/></g></g></g><g fill="#ffffff" fill-opacity="1"><g transform="translate(765.741195, 1059.373137)"><g><path d="M 12.859375 0 L 6.78125 0 C 5.875 0 5.421875 -0.425781 5.421875 -1.28125 L 5.421875 -30.96875 C 5.421875 -31.832031 5.875 -32.265625 6.78125 -32.265625 L 12.859375 -32.265625 C 13.210938 -32.265625 13.53125 -32.144531 13.8125 -31.90625 C 14.09375 -31.675781 14.234375 -31.378906 14.234375 -31.015625 L 14.234375 -18.8125 L 25.1875 -31.4375 C 25.519531 -31.738281 25.835938 -31.957031 26.140625 -32.09375 C 26.453125 -32.226562 26.828125 -32.296875 27.265625 -32.296875 L 35.09375 -32.296875 C 35.769531 -32.296875 36.109375 -32.097656 36.109375 -31.703125 C 36.035156 -31.285156 35.867188 -30.929688 35.609375 -30.640625 C 33.660156 -28.453125 31.71875 -26.296875 29.78125 -24.171875 C 27.851562 -22.046875 25.925781 -19.941406 24 -17.859375 L 36.765625 -1.8125 C 37.160156 -1.320312 37.359375 -0.882812 37.359375 -0.5 C 37.359375 -0.164062 37.128906 0 36.671875 0 L 29 0 C 28.039062 0 27.316406 -0.175781 26.828125 -0.53125 C 26.523438 -0.769531 26.234375 -1.066406 25.953125 -1.421875 C 25.679688 -1.785156 25.503906 -2.015625 25.421875 -2.109375 L 17.953125 -11.875 L 14.234375 -7.828125 L 14.234375 -1.28125 C 14.234375 -0.425781 13.773438 0 12.859375 0 Z M 12.859375 0 "/></g></g></g><g fill="#ffffff" fill-opacity="1"><g transform="translate(805.101909, 1059.373137)"><g><path d="M 28.4375 0 L 6.515625 0 C 5.660156 -0.0390625 5.234375 -0.546875 5.234375 -1.515625 L 5.234375 -30.71875 C 5.234375 -31.75 5.734375 -32.265625 6.734375 -32.265625 L 27.71875 -32.265625 C 28.175781 -32.265625 28.546875 -32.117188 28.828125 -31.828125 C 29.117188 -31.546875 29.265625 -31.175781 29.265625 -30.71875 L 29.265625 -26.203125 C 29.265625 -25.703125 29.117188 -25.3125 28.828125 -25.03125 C 28.546875 -24.757812 28.175781 -24.625 27.71875 -24.625 L 14.078125 -24.625 L 14.078125 -19.734375 L 24.859375 -19.734375 C 25.316406 -19.734375 25.679688 -19.585938 25.953125 -19.296875 C 26.234375 -19.015625 26.375 -18.625 26.375 -18.125 L 26.375 -14.140625 C 26.375 -13.679688 26.234375 -13.304688 25.953125 -13.015625 C 25.679688 -12.734375 25.316406 -12.59375 24.859375 -12.59375 L 14.078125 -12.59375 L 14.078125 -7.828125 L 28.4375 -7.828125 C 28.90625 -7.828125 29.28125 -7.675781 29.5625 -7.375 C 29.84375 -7.082031 29.984375 -6.6875 29.984375 -6.1875 L 29.984375 -1.515625 C 29.984375 -1.078125 29.847656 -0.710938 29.578125 -0.421875 C 29.304688 -0.140625 28.925781 0 28.4375 0 Z M 28.4375 0 "/></g></g></g><g fill="#ffffff" fill-opacity="1"><g transform="translate(837.655907, 1059.373137)"><g/></g></g><g fill="#ffffff" fill-opacity="1"><g transform="translate(858.24053, 1059.373137)"><g><path d="M 19.046875 0 L 6.515625 0 C 5.640625 -0.0195312 5.203125 -0.523438 5.203125 -1.515625 L 5.203125 -30.78125 C 5.203125 -31.8125 5.710938 -32.328125 6.734375 -32.328125 L 18.84375 -32.328125 C 21.082031 -32.285156 23.148438 -31.835938 25.046875 -30.984375 C 26.941406 -30.140625 28.578125 -28.984375 29.953125 -27.515625 C 31.335938 -26.046875 32.410156 -24.347656 33.171875 -22.421875 C 33.941406 -20.492188 34.328125 -18.425781 34.328125 -16.21875 C 34.328125 -14.0625 33.953125 -12.007812 33.203125 -10.0625 C 32.460938 -8.113281 31.40625 -6.378906 30.03125 -4.859375 C 28.664062 -3.347656 27.050781 -2.160156 25.1875 -1.296875 C 23.320312 -0.429688 21.273438 0 19.046875 0 Z M 14.140625 -7.625 L 17.625 -7.625 C 19.3125 -7.625 20.75 -8.015625 21.9375 -8.796875 C 23.132812 -9.578125 24.050781 -10.625 24.6875 -11.9375 C 25.332031 -13.25 25.65625 -14.707031 25.65625 -16.3125 C 25.65625 -17.9375 25.304688 -19.390625 24.609375 -20.671875 C 23.921875 -21.953125 22.957031 -22.960938 21.71875 -23.703125 C 20.476562 -24.453125 19.035156 -24.828125 17.390625 -24.828125 L 14.140625 -24.828125 Z M 14.140625 -7.625 "/></g></g></g><g fill="#ffffff" fill-opacity="1"><g transform="translate(893.030566, 1059.373137)"><g><path d="M 12.46875 0 L 6.78125 0 C 5.75 0 5.234375 -0.515625 5.234375 -1.546875 L 5.234375 -30.75 C 5.234375 -31.207031 5.367188 -31.582031 5.640625 -31.875 C 5.910156 -32.175781 6.289062 -32.328125 6.78125 -32.328125 L 12.46875 -32.328125 C 12.882812 -32.328125 13.257812 -32.171875 13.59375 -31.859375 C 13.9375 -31.554688 14.109375 -31.1875 14.109375 -30.75 L 14.109375 -1.546875 C 14.109375 -0.515625 13.5625 0 12.46875 0 Z M 12.46875 0 "/></g></g></g><g fill="#ffffff" fill-opacity="1"><g transform="translate(912.3985, 1059.373137)"><g><path d="M 28.4375 0 L 6.515625 0 C 5.660156 -0.0390625 5.234375 -0.546875 5.234375 -1.515625 L 5.234375 -30.71875 C 5.234375 -31.75 5.734375 -32.265625 6.734375 -32.265625 L 27.71875 -32.265625 C 28.175781 -32.265625 28.546875 -32.117188 28.828125 -31.828125 C 29.117188 -31.546875 29.265625 -31.175781 29.265625 -30.71875 L 29.265625 -26.203125 C 29.265625 -25.703125 29.117188 -25.3125 28.828125 -25.03125 C 28.546875 -24.757812 28.175781 -24.625 27.71875 -24.625 L 14.078125 -24.625 L 14.078125 -19.734375 L 24.859375 -19.734375 C 25.316406 -19.734375 25.679688 -19.585938 25.953125 -19.296875 C 26.234375 -19.015625 26.375 -18.625 26.375 -18.125 L 26.375 -14.140625 C 26.375 -13.679688 26.234375 -13.304688 25.953125 -13.015625 C 25.679688 -12.734375 25.316406 -12.59375 24.859375 -12.59375 L 14.078125 -12.59375 L 14.078125 -7.828125 L 28.4375 -7.828125 C 28.90625 -7.828125 29.28125 -7.675781 29.5625 -7.375 C 29.84375 -7.082031 29.984375 -6.6875 29.984375 -6.1875 L 29.984375 -1.515625 C 29.984375 -1.078125 29.847656 -0.710938 29.578125 -0.421875 C 29.304688 -0.140625 28.925781 0 28.4375 0 Z M 28.4375 0 "/></g></g></g><g fill="#ffffff" fill-opacity="1"><g transform="translate(944.952498, 1059.373137)"><g><path d="M 12.65625 0 L 6.78125 0 C 5.769531 0 5.265625 -0.503906 5.265625 -1.515625 L 5.265625 -30.640625 C 5.265625 -31.109375 5.398438 -31.492188 5.671875 -31.796875 C 5.941406 -32.109375 6.3125 -32.265625 6.78125 -32.265625 L 14.140625 -32.265625 C 14.734375 -32.265625 15.21875 -32.007812 15.59375 -31.5 L 28.3125 -14.015625 L 28.3125 -30.9375 C 28.445312 -31.820312 28.941406 -32.265625 29.796875 -32.265625 L 35.640625 -32.265625 C 36.054688 -32.265625 36.4375 -32.117188 36.78125 -31.828125 C 37.125 -31.546875 37.296875 -31.175781 37.296875 -30.71875 L 37.296875 -1.515625 C 37.296875 -0.503906 36.742188 0 35.640625 0 L 28.546875 0 C 28.109375 0 27.691406 -0.25 27.296875 -0.75 L 14.234375 -18.640625 L 14.234375 -1.515625 C 14.234375 -0.503906 13.707031 0 12.65625 0 Z M 12.65625 0 "/></g></g></g><g fill="#ffffff" fill-opacity="1"><g transform="translate(987.174006, 1059.373137)"><g><path d="M 15.453125 0.75 C 13.148438 0.75 10.988281 0.328125 8.96875 -0.515625 C 6.957031 -1.359375 5.25 -2.535156 3.84375 -4.046875 C 3.382812 -4.523438 3.046875 -5.039062 2.828125 -5.59375 C 2.742188 -5.738281 2.703125 -5.957031 2.703125 -6.25 C 2.703125 -6.644531 2.851562 -6.960938 3.15625 -7.203125 L 7.171875 -10.421875 C 7.390625 -10.640625 7.628906 -10.75 7.890625 -10.75 C 8.128906 -10.726562 8.398438 -10.609375 8.703125 -10.390625 C 9.015625 -10.171875 9.316406 -9.941406 9.609375 -9.703125 C 9.910156 -9.460938 10.140625 -9.273438 10.296875 -9.140625 C 10.992188 -8.523438 11.785156 -7.96875 12.671875 -7.46875 C 13.566406 -6.976562 14.484375 -6.734375 15.421875 -6.734375 C 16.472656 -6.734375 17.378906 -6.96875 18.140625 -7.4375 C 18.910156 -7.914062 19.296875 -8.734375 19.296875 -9.890625 C 19.296875 -10.703125 18.648438 -11.472656 17.359375 -12.203125 C 16.785156 -12.523438 16.175781 -12.785156 15.53125 -12.984375 C 14.882812 -13.179688 14.5 -13.300781 14.375 -13.34375 C 13.03125 -13.71875 11.710938 -14.15625 10.421875 -14.65625 C 9.128906 -15.164062 7.960938 -15.804688 6.921875 -16.578125 C 5.878906 -17.359375 5.046875 -18.3125 4.421875 -19.4375 C 3.796875 -20.570312 3.484375 -21.941406 3.484375 -23.546875 C 3.484375 -24.796875 3.773438 -25.984375 4.359375 -27.109375 C 4.941406 -28.242188 5.769531 -29.25 6.84375 -30.125 C 7.9375 -31 9.242188 -31.679688 10.765625 -32.171875 C 12.285156 -32.671875 13.957031 -32.921875 15.78125 -32.921875 C 17.882812 -32.921875 19.816406 -32.566406 21.578125 -31.859375 C 23.347656 -31.160156 24.925781 -30.1875 26.3125 -28.9375 C 27.09375 -28.21875 27.484375 -27.570312 27.484375 -27 C 27.484375 -26.820312 27.375 -26.625 27.15625 -26.40625 C 27.007812 -26.207031 26.710938 -25.910156 26.265625 -25.515625 C 25.828125 -25.117188 25.335938 -24.703125 24.796875 -24.265625 C 24.265625 -23.828125 23.769531 -23.453125 23.3125 -23.140625 C 22.851562 -22.835938 22.535156 -22.6875 22.359375 -22.6875 C 22.054688 -22.6875 21.6875 -22.882812 21.25 -23.28125 C 20.539062 -23.976562 19.722656 -24.539062 18.796875 -24.96875 C 17.878906 -25.394531 16.921875 -25.609375 15.921875 -25.609375 C 15.453125 -25.609375 14.953125 -25.550781 14.421875 -25.4375 C 13.898438 -25.332031 13.453125 -25.117188 13.078125 -24.796875 C 12.710938 -24.484375 12.53125 -24.035156 12.53125 -23.453125 C 12.53125 -22.722656 12.976562 -22.097656 13.875 -21.578125 C 14.25 -21.328125 14.769531 -21.082031 15.4375 -20.84375 C 16.101562 -20.601562 16.8125 -20.363281 17.5625 -20.125 C 18.875 -19.6875 20.179688 -19.1875 21.484375 -18.625 C 22.796875 -18.070312 24 -17.390625 25.09375 -16.578125 C 26.1875 -15.765625 27.0625 -14.785156 27.71875 -13.640625 C 28.375 -12.503906 28.703125 -11.125 28.703125 -9.5 C 28.703125 -7.726562 28.304688 -6.191406 27.515625 -4.890625 C 26.734375 -3.597656 25.691406 -2.535156 24.390625 -1.703125 C 23.097656 -0.867188 21.675781 -0.253906 20.125 0.140625 C 18.570312 0.546875 17.015625 0.75 15.453125 0.75 Z M 15.453125 0.75 "/></g></g></g><g fill="#ffffff" fill-opacity="1"><g transform="translate(1017.952339, 1059.373137)"><g><path d="M 16.84375 0 L 10.484375 0 C 9.484375 0 8.984375 -0.503906 8.984375 -1.515625 L 8.984375 -24.03125 L 2.109375 -24.03125 C 1.296875 -24.03125 0.890625 -24.484375 0.890625 -25.390625 L 0.890625 -31.015625 C 0.890625 -31.847656 1.296875 -32.265625 2.109375 -32.265625 L 25.390625 -32.265625 C 26.203125 -32.265625 26.609375 -31.847656 26.609375 -31.015625 L 26.609375 -25.390625 C 26.609375 -25.078125 26.492188 -24.769531 26.265625 -24.46875 C 26.046875 -24.175781 25.753906 -24.03125 25.390625 -24.03125 L 18.453125 -24.03125 L 18.453125 -1.515625 C 18.453125 -0.503906 17.914062 0 16.84375 0 Z M 16.84375 0 "/></g></g></g></svg>