<svg xmlns="http://www.w3.org/2000/svg" xmlns:xlink="http://www.w3.org/1999/xlink" width="200" zoomAndPan="magnify" viewBox="0 0 150 82.499998" height="110" preserveAspectRatio="xMidYMid meet" version="1.0"><defs><filter x="0%" y="0%" width="100%" height="100%" id="fa9bcb0e37"><feColorMatrix values="0 0 0 0 1 0 0 0 0 1 0 0 0 0 1 0 0 0 1 0" color-interpolation-filters="sRGB"/></filter><g/><clipPath id="e015949160"><path d="M 20.105469 0.152344 L 66 0.152344 L 66 42.488281 L 20.105469 42.488281 Z M 20.105469 0.152344 " clip-rule="nonzero"/></clipPath><clipPath id="afafc11d6c"><path d="M 83 50 L 93.398438 50 L 93.398438 62 L 83 62 Z M 83 50 " clip-rule="nonzero"/></clipPath><mask id="a9e69c8c00"><g filter="url(#fa9bcb0e37)"><rect x="-61" width="216" fill="#000000" y="-22.149999" height="118.799997" fill-opacity="0.44"/></g></mask><clipPath id="08e1eb9d52"><path d="M 1.105469 0.363281 L 46.964844 0.363281 L 46.964844 42.699219 L 1.105469 42.699219 Z M 1.105469 0.363281 " clip-rule="nonzero"/></clipPath><clipPath id="838968264e"><rect x="0" width="47" y="0" height="43"/></clipPath><clipPath id="e998c018d4"><rect x="0" width="94" y="0" height="73"/></clipPath></defs><g transform="matrix(1, 0, 0, 1, 28, 4)"><g clip-path="url(#e998c018d4)"><g clip-path="url(#e015949160)"><path fill="#00bf63" d="M 65.472656 5.675781 C 65.457031 5.511719 65.371094 5.375 65.238281 5.28125 C 65.105469 5.191406 64.941406 5.171875 64.792969 5.21875 C 63.722656 5.5625 61.527344 6.128906 58.871094 6.058594 C 56.710938 6.007812 54.703125 5.546875 52.894531 4.695312 C 50.871094 3.738281 49.097656 2.277344 47.613281 0.351562 C 47.511719 0.21875 47.355469 0.152344 47.1875 0.152344 C 47.019531 0.152344 46.867188 0.234375 46.777344 0.375 C 45.484375 2.234375 43.832031 3.652344 41.867188 4.589844 C 40.097656 5.4375 38.070312 5.898438 35.839844 5.96875 C 33.074219 6.050781 30.710938 5.511719 29.554688 5.191406 C 29.410156 5.148438 29.25 5.175781 29.117188 5.261719 C 28.988281 5.351562 28.90625 5.492188 28.890625 5.644531 C 28.675781 8.007812 28.585938 10.28125 28.625 12.457031 C 23.886719 12.722656 20.109375 16.664062 20.109375 21.46875 C 20.109375 26.445312 24.160156 30.492188 29.136719 30.492188 C 30.382812 30.492188 31.570312 30.242188 32.648438 29.78125 C 32.757812 29.984375 32.871094 30.191406 32.980469 30.394531 C 36.128906 35.996094 40.847656 40.058594 47 42.449219 C 47.0625 42.46875 47.125 42.484375 47.1875 42.484375 C 47.246094 42.484375 47.308594 42.476562 47.363281 42.457031 C 54.296875 39.996094 59.128906 35.875 62.144531 29.863281 C 65.210938 23.738281 66.304688 15.832031 65.472656 5.675781 Z M 32.242188 28.984375 C 31.285156 29.382812 30.234375 29.597656 29.136719 29.597656 C 24.65625 29.597656 21.007812 25.949219 21.007812 21.46875 C 21.007812 17.148438 24.398438 13.601562 28.65625 13.351562 C 28.816406 13.34375 28.976562 13.335938 29.144531 13.335938 C 29.332031 13.335938 29.515625 13.34375 29.703125 13.355469 C 33.925781 13.644531 37.273438 17.175781 37.273438 21.46875 C 37.273438 24.472656 35.640625 27.101562 33.207031 28.507812 C 32.898438 28.6875 32.570312 28.851562 32.242188 28.984375 Z M 47.195312 41.40625 C 42.980469 39.730469 37.335938 36.289062 33.613281 29.304688 C 34.277344 28.925781 34.882812 28.464844 35.429688 27.933594 C 35.5625 27.808594 35.679688 27.675781 35.808594 27.542969 L 40.191406 27.542969 L 43.425781 33.476562 L 46.25 33.476562 C 46.355469 33.890625 46.734375 34.207031 47.179688 34.207031 C 47.714844 34.207031 48.140625 33.773438 48.140625 33.246094 C 48.140625 32.714844 47.714844 32.289062 47.179688 32.289062 C 46.734375 32.289062 46.355469 32.597656 46.25 33.015625 L 43.707031 33.015625 L 40.464844 27.082031 L 36.207031 27.082031 C 36.34375 26.90625 36.484375 26.71875 36.609375 26.535156 C 36.695312 26.410156 36.777344 26.277344 36.855469 26.144531 L 41.988281 26.144531 L 43.40625 28.570312 C 43.222656 28.746094 43.105469 28.996094 43.105469 29.269531 C 43.105469 29.792969 43.539062 30.226562 44.0625 30.226562 C 44.59375 30.226562 45.019531 29.792969 45.019531 29.269531 C 45.019531 28.738281 44.585938 28.3125 44.0625 28.3125 C 43.980469 28.3125 43.894531 28.324219 43.8125 28.347656 L 42.253906 25.667969 L 37.121094 25.667969 C 37.21875 25.488281 37.308594 25.304688 37.386719 25.125 C 37.441406 24.996094 37.5 24.863281 37.546875 24.730469 L 48.816406 24.730469 L 50.40625 25.789062 L 56.101562 25.789062 C 56.207031 26.207031 56.585938 26.515625 57.03125 26.515625 C 57.5625 26.515625 57.988281 26.082031 57.988281 25.558594 C 57.988281 25.027344 57.558594 24.597656 57.03125 24.597656 C 56.585938 24.597656 56.207031 24.90625 56.101562 25.328125 L 50.542969 25.328125 L 48.957031 24.269531 L 37.714844 24.269531 C 37.769531 24.089844 37.828125 23.90625 37.875 23.726562 C 37.910156 23.601562 37.9375 23.464844 37.96875 23.332031 L 50.769531 23.332031 C 50.871094 23.746094 51.25 24.0625 51.699219 24.0625 C 52.230469 24.0625 52.65625 23.628906 52.65625 23.101562 C 52.65625 22.570312 52.222656 22.144531 51.699219 22.144531 C 51.25 22.144531 50.871094 22.453125 50.769531 22.871094 L 38.058594 22.871094 C 38.085938 22.691406 38.105469 22.507812 38.128906 22.328125 C 38.140625 22.203125 38.148438 22.070312 38.15625 21.9375 L 44.71875 21.9375 L 46.082031 19.949219 C 46.183594 19.984375 46.292969 20.007812 46.40625 20.007812 C 46.9375 20.007812 47.363281 19.574219 47.363281 19.046875 C 47.363281 18.515625 46.929688 18.089844 46.40625 18.089844 C 45.882812 18.089844 45.449219 18.523438 45.449219 19.046875 C 45.449219 19.292969 45.539062 19.515625 45.691406 19.691406 L 44.46875 21.46875 L 38.167969 21.46875 C 38.167969 21.285156 38.164062 21.097656 38.148438 20.921875 C 38.140625 20.789062 38.128906 20.664062 38.113281 20.53125 L 42.699219 20.53125 L 44.769531 17.046875 L 60.285156 17.046875 C 60.386719 17.460938 60.765625 17.777344 61.214844 17.777344 C 61.746094 17.777344 62.171875 17.34375 62.171875 16.816406 C 62.171875 16.285156 61.746094 15.859375 61.214844 15.859375 C 60.765625 15.859375 60.386719 16.167969 60.285156 16.585938 L 44.503906 16.585938 L 42.433594 20.070312 L 38.050781 20.070312 C 38.023438 19.886719 37.988281 19.699219 37.945312 19.523438 C 37.917969 19.390625 37.882812 19.265625 37.847656 19.132812 L 41.492188 19.132812 L 43.875 14.972656 L 50.503906 14.972656 C 50.605469 15.386719 50.984375 15.699219 51.433594 15.699219 C 51.964844 15.699219 52.390625 15.265625 52.390625 14.742188 C 52.390625 14.21875 51.957031 13.785156 51.433594 13.785156 C 50.984375 13.785156 50.605469 14.089844 50.503906 14.511719 L 43.601562 14.511719 L 41.226562 18.671875 L 37.714844 18.671875 C 37.652344 18.480469 37.589844 18.300781 37.511719 18.125 C 37.464844 17.992188 37.40625 17.867188 37.34375 17.734375 L 41.0625 17.734375 L 43.757812 13.050781 L 55.019531 13.050781 C 55.125 13.460938 55.5 13.777344 55.949219 13.777344 C 56.480469 13.777344 56.90625 13.34375 56.90625 12.820312 C 56.90625 12.289062 56.472656 11.859375 55.949219 11.859375 C 55.5 11.859375 55.125 12.167969 55.019531 12.589844 L 43.484375 12.589844 L 40.792969 17.273438 L 37.105469 17.273438 C 37.007812 17.082031 36.90625 16.902344 36.792969 16.726562 C 36.707031 16.59375 36.625 16.46875 36.535156 16.335938 L 39.308594 16.335938 L 43.222656 9.058594 L 48.144531 9.058594 C 48.25 9.46875 48.628906 9.785156 49.078125 9.785156 C 49.609375 9.785156 50.035156 9.351562 50.035156 8.828125 C 50.035156 8.300781 49.609375 7.867188 49.078125 7.867188 C 48.628906 7.867188 48.25 8.175781 48.144531 8.597656 L 42.953125 8.597656 L 39.035156 15.882812 L 36.191406 15.882812 C 34.640625 13.945312 32.3125 12.65625 29.675781 12.503906 C 29.640625 10.589844 29.703125 8.5625 29.886719 6.402344 C 31.21875 6.738281 33.386719 7.136719 35.882812 7.058594 C 38.261719 6.988281 40.429688 6.484375 42.324219 5.574219 C 44.246094 4.652344 45.894531 3.3125 47.222656 1.570312 C 48.710938 3.359375 50.472656 4.738281 52.445312 5.675781 C 54.390625 6.589844 56.542969 7.085938 58.84375 7.140625 C 61.207031 7.199219 63.21875 6.785156 64.476562 6.4375 C 65.90625 25.496094 60.402344 36.632812 47.195312 41.40625 Z M 46.683594 33.242188 C 46.683594 32.96875 46.910156 32.75 47.175781 32.75 C 47.449219 32.75 47.664062 32.96875 47.664062 33.242188 C 47.664062 33.511719 47.441406 33.730469 47.175781 33.730469 C 46.910156 33.738281 46.683594 33.511719 46.683594 33.242188 Z M 43.574219 29.261719 C 43.574219 28.988281 43.796875 28.773438 44.0625 28.773438 C 44.335938 28.773438 44.554688 28.996094 44.554688 29.261719 C 44.554688 29.535156 44.328125 29.753906 44.0625 29.753906 C 43.796875 29.753906 43.574219 29.527344 43.574219 29.261719 Z M 56.542969 25.550781 C 56.542969 25.277344 56.765625 25.0625 57.03125 25.0625 C 57.304688 25.0625 57.523438 25.285156 57.523438 25.550781 C 57.523438 25.824219 57.304688 26.039062 57.03125 26.039062 C 56.757812 26.046875 56.542969 25.824219 56.542969 25.550781 Z M 51.207031 23.097656 C 51.207031 22.824219 51.425781 22.605469 51.699219 22.605469 C 51.96875 22.605469 52.1875 22.832031 52.1875 23.097656 C 52.1875 23.367188 51.96875 23.585938 51.699219 23.585938 C 51.425781 23.585938 51.207031 23.363281 51.207031 23.097656 Z M 45.910156 19.042969 C 45.910156 18.769531 46.125 18.550781 46.398438 18.550781 C 46.671875 18.550781 46.886719 18.769531 46.886719 19.042969 C 46.886719 19.3125 46.664062 19.53125 46.398438 19.53125 C 46.125 19.53125 45.910156 19.308594 45.910156 19.042969 Z M 60.71875 16.796875 C 60.71875 16.523438 60.941406 16.308594 61.207031 16.308594 C 61.480469 16.308594 61.695312 16.53125 61.695312 16.796875 C 61.695312 17.070312 61.472656 17.285156 61.207031 17.285156 C 60.941406 17.285156 60.71875 17.070312 60.71875 16.796875 Z M 50.941406 14.71875 C 50.941406 14.449219 51.167969 14.230469 51.433594 14.230469 C 51.703125 14.230469 51.921875 14.449219 51.921875 14.71875 C 51.921875 14.992188 51.703125 15.210938 51.433594 15.210938 C 51.160156 15.210938 50.941406 14.992188 50.941406 14.71875 Z M 55.460938 12.792969 C 55.460938 12.519531 55.675781 12.300781 55.949219 12.300781 C 56.222656 12.300781 56.4375 12.523438 56.4375 12.792969 C 56.4375 13.0625 56.214844 13.28125 55.949219 13.28125 C 55.675781 13.28125 55.460938 13.058594 55.460938 12.792969 Z M 48.585938 8.785156 C 48.585938 8.511719 48.8125 8.296875 49.078125 8.296875 C 49.347656 8.296875 49.566406 8.519531 49.566406 8.785156 C 49.566406 9.058594 49.34375 9.273438 49.078125 9.273438 C 48.804688 9.273438 48.585938 9.058594 48.585938 8.785156 Z M 48.585938 8.785156 " fill-opacity="1" fill-rule="nonzero"/></g><path fill="#00bf63" d="M 32.449219 19.25 L 31.90625 19.25 L 31.90625 18.011719 C 31.90625 16.726562 31.011719 15.644531 29.808594 15.363281 C 29.605469 15.316406 29.394531 15.285156 29.179688 15.285156 C 29.039062 15.285156 28.898438 15.292969 28.757812 15.320312 C 27.453125 15.523438 26.453125 16.65625 26.453125 18.011719 L 26.453125 19.25 L 25.824219 19.25 C 25.761719 19.25 25.699219 19.257812 25.632812 19.273438 C 25.230469 19.355469 24.933594 19.71875 24.933594 20.140625 L 24.933594 23.675781 C 24.933594 24.382812 25.117188 24.992188 25.464844 25.472656 C 25.726562 25.828125 26.082031 26.117188 26.527344 26.332031 C 27.199219 26.660156 28.074219 26.828125 29.136719 26.828125 C 29.921875 26.828125 30.597656 26.738281 31.171875 26.558594 C 31.5 26.453125 31.792969 26.320312 32.050781 26.160156 C 32.082031 26.136719 32.109375 26.125 32.136719 26.101562 C 32.925781 25.570312 33.332031 24.753906 33.332031 23.675781 L 33.332031 20.140625 C 33.332031 19.648438 32.941406 19.25 32.449219 19.25 Z M 27.355469 18.011719 C 27.355469 17.125 27.992188 16.382812 28.828125 16.222656 C 28.941406 16.203125 29.058594 16.1875 29.171875 16.1875 C 29.421875 16.1875 29.667969 16.238281 29.886719 16.335938 C 30.535156 16.617188 30.988281 17.257812 30.988281 18.007812 L 30.988281 19.242188 L 27.355469 19.242188 Z M 32.773438 23.675781 C 32.773438 24.5 32.492188 25.128906 31.933594 25.558594 C 31.675781 25.761719 31.351562 25.921875 30.976562 26.03125 C 30.472656 26.1875 29.855469 26.261719 29.136719 26.261719 C 28.164062 26.261719 27.367188 26.117188 26.78125 25.828125 C 26.417969 25.65625 26.128906 25.425781 25.929688 25.136719 C 25.648438 24.753906 25.507812 24.265625 25.507812 23.675781 L 25.507812 20.140625 C 25.507812 19.984375 25.613281 19.859375 25.761719 19.824219 C 25.78125 19.816406 25.808594 19.816406 25.832031 19.816406 L 32.457031 19.816406 C 32.632812 19.816406 32.78125 19.964844 32.78125 20.140625 L 32.78125 23.675781 Z M 32.773438 23.675781 " fill-opacity="1" fill-rule="nonzero"/><path fill="#00bf63" d="M 29.464844 22.878906 C 29.480469 22.859375 29.488281 22.835938 29.492188 22.816406 L 29.738281 21.871094 L 29.789062 21.691406 C 29.792969 21.65625 29.792969 21.621094 29.78125 21.59375 C 29.78125 21.585938 29.773438 21.578125 29.765625 21.570312 C 29.765625 21.570312 29.757812 21.566406 29.757812 21.566406 C 29.757812 21.566406 29.753906 21.558594 29.753906 21.558594 C 29.746094 21.550781 29.738281 21.542969 29.730469 21.542969 C 29.722656 21.539062 29.71875 21.539062 29.710938 21.53125 C 29.703125 21.53125 29.6875 21.523438 29.683594 21.523438 C 29.675781 21.523438 29.660156 21.523438 29.65625 21.515625 C 29.648438 21.515625 29.648438 21.515625 29.640625 21.515625 L 28.722656 21.515625 C 28.621094 21.515625 28.550781 21.601562 28.578125 21.703125 L 28.871094 22.832031 C 28.878906 22.851562 28.886719 22.871094 28.898438 22.894531 C 28.703125 23 28.570312 23.199219 28.570312 23.4375 C 28.570312 23.78125 28.84375 24.054688 29.1875 24.054688 C 29.527344 24.054688 29.800781 23.78125 29.800781 23.4375 C 29.792969 23.1875 29.660156 22.984375 29.464844 22.878906 Z M 29.464844 22.878906 " fill-opacity="1" fill-rule="nonzero"/><g fill="#004aad" fill-opacity="1"><g transform="translate(0.756307, 61.01454)"><g><path d="M 7.375 0 L 2.171875 0 C 1.878906 0 1.734375 -0.140625 1.734375 -0.421875 L 1.734375 -15.5 C 1.734375 -15.78125 1.878906 -15.921875 2.171875 -15.921875 L 7.296875 -15.921875 C 8.148438 -15.921875 8.972656 -15.78125 9.765625 -15.5 C 10.554688 -15.226562 11.289062 -14.84375 11.96875 -14.34375 C 12.644531 -13.851562 13.234375 -13.273438 13.734375 -12.609375 C 14.242188 -11.941406 14.640625 -11.210938 14.921875 -10.421875 C 15.203125 -9.640625 15.34375 -8.816406 15.34375 -7.953125 C 15.34375 -7.066406 15.207031 -6.226562 14.9375 -5.4375 C 14.664062 -4.65625 14.28125 -3.9375 13.78125 -3.28125 C 13.289062 -2.632812 12.710938 -2.070312 12.046875 -1.59375 C 11.390625 -1.113281 10.660156 -0.734375 9.859375 -0.453125 C 9.066406 -0.179688 8.238281 -0.03125 7.375 0 Z M 4.90625 -2.890625 L 7.015625 -2.890625 C 7.734375 -2.890625 8.40625 -3.015625 9.03125 -3.265625 C 9.65625 -3.523438 10.203125 -3.882812 10.671875 -4.34375 C 11.148438 -4.800781 11.523438 -5.335938 11.796875 -5.953125 C 12.066406 -6.566406 12.203125 -7.234375 12.203125 -7.953125 C 12.203125 -8.679688 12.066406 -9.351562 11.796875 -9.96875 C 11.523438 -10.582031 11.148438 -11.117188 10.671875 -11.578125 C 10.203125 -12.035156 9.65625 -12.390625 9.03125 -12.640625 C 8.40625 -12.898438 7.734375 -13.03125 7.015625 -13.03125 L 4.90625 -13.03125 Z M 4.90625 -2.890625 "/></g></g></g><g fill="#004aad" fill-opacity="1"><g transform="translate(16.735272, 61.01454)"><g><path d="M 5.9375 0.234375 C 5.320312 0.234375 4.722656 0.132812 4.140625 -0.0625 C 3.554688 -0.269531 3.03125 -0.5625 2.5625 -0.9375 C 2.09375 -1.320312 1.71875 -1.78125 1.4375 -2.3125 C 1.164062 -2.851562 1.03125 -3.453125 1.03125 -4.109375 L 1.03125 -9.90625 C 1.03125 -10.09375 1.085938 -10.242188 1.203125 -10.359375 C 1.328125 -10.472656 1.476562 -10.53125 1.65625 -10.53125 L 3.40625 -10.53125 C 3.632812 -10.53125 3.789062 -10.476562 3.875 -10.375 C 3.96875 -10.28125 4.015625 -10.128906 4.015625 -9.921875 L 4.015625 -4.5 C 4.015625 -4.113281 4.097656 -3.773438 4.265625 -3.484375 C 4.429688 -3.203125 4.660156 -2.976562 4.953125 -2.8125 C 5.242188 -2.65625 5.582031 -2.578125 5.96875 -2.578125 C 6.34375 -2.578125 6.675781 -2.65625 6.96875 -2.8125 C 7.257812 -2.976562 7.488281 -3.203125 7.65625 -3.484375 C 7.832031 -3.773438 7.921875 -4.113281 7.921875 -4.5 L 7.921875 -9.921875 C 7.921875 -10.128906 7.960938 -10.28125 8.046875 -10.375 C 8.140625 -10.476562 8.296875 -10.53125 8.515625 -10.53125 L 10.28125 -10.53125 C 10.457031 -10.53125 10.601562 -10.472656 10.71875 -10.359375 C 10.832031 -10.242188 10.890625 -10.09375 10.890625 -9.90625 L 10.890625 -4.109375 C 10.890625 -3.453125 10.75 -2.851562 10.46875 -2.3125 C 10.1875 -1.78125 9.804688 -1.320312 9.328125 -0.9375 C 8.859375 -0.5625 8.328125 -0.269531 7.734375 -0.0625 C 7.148438 0.132812 6.550781 0.234375 5.9375 0.234375 Z M 5.9375 0.234375 "/></g></g></g><g fill="#004aad" fill-opacity="1"><g transform="translate(28.671237, 61.01454)"><g><path d="M 5.484375 0 L 3.421875 0 C 3.085938 0 2.921875 -0.164062 2.921875 -0.5 L 2.921875 -7.84375 L 0.6875 -7.84375 C 0.425781 -7.84375 0.296875 -7.988281 0.296875 -8.28125 L 0.296875 -10.109375 C 0.296875 -10.378906 0.425781 -10.515625 0.6875 -10.515625 L 8.28125 -10.515625 C 8.539062 -10.515625 8.671875 -10.378906 8.671875 -10.109375 L 8.671875 -8.28125 C 8.671875 -8.175781 8.632812 -8.078125 8.5625 -7.984375 C 8.5 -7.890625 8.40625 -7.84375 8.28125 -7.84375 L 6.015625 -7.84375 L 6.015625 -0.5 C 6.015625 -0.164062 5.835938 0 5.484375 0 Z M 5.484375 0 "/></g></g></g><g fill="#004aad" fill-opacity="1"><g transform="translate(37.700963, 61.01454)"><g><path d="M 6.84375 0 L 4.640625 0 C 4.367188 0 4.234375 -0.125 4.234375 -0.375 L 4.234375 -4.296875 L 0.515625 -10.03125 C 0.441406 -10.125 0.40625 -10.210938 0.40625 -10.296875 C 0.40625 -10.453125 0.5 -10.53125 0.6875 -10.53125 L 3.28125 -10.53125 C 3.375 -10.53125 3.453125 -10.503906 3.515625 -10.453125 C 3.585938 -10.398438 3.664062 -10.304688 3.75 -10.171875 L 5.734375 -6.796875 L 7.6875 -10.15625 C 7.832031 -10.382812 8.03125 -10.507812 8.28125 -10.53125 L 10.765625 -10.53125 C 10.960938 -10.53125 11.0625 -10.453125 11.0625 -10.296875 C 11.0625 -10.234375 11.035156 -10.160156 10.984375 -10.078125 L 7.21875 -4.296875 L 7.21875 -0.375 C 7.21875 -0.125 7.09375 0 6.84375 0 Z M 6.84375 0 "/></g></g></g><g fill="#00bf63" fill-opacity="1"><g transform="translate(48.908935, 61.01454)"><g><path d="M 9.1875 0.21875 C 8.28125 0.21875 7.414062 0.0820312 6.59375 -0.1875 C 5.78125 -0.46875 5.023438 -0.859375 4.328125 -1.359375 C 3.640625 -1.859375 3.039062 -2.445312 2.53125 -3.125 C 2.03125 -3.8125 1.640625 -4.566406 1.359375 -5.390625 C 1.078125 -6.210938 0.9375 -7.082031 0.9375 -8 C 0.9375 -8.90625 1.070312 -9.765625 1.34375 -10.578125 C 1.625 -11.398438 2.015625 -12.148438 2.515625 -12.828125 C 3.015625 -13.503906 3.601562 -14.09375 4.28125 -14.59375 C 4.96875 -15.09375 5.722656 -15.476562 6.546875 -15.75 C 7.367188 -16.019531 8.238281 -16.15625 9.15625 -16.15625 C 10.09375 -16.15625 10.953125 -16.019531 11.734375 -15.75 C 12.515625 -15.476562 13.25 -15.082031 13.9375 -14.5625 C 14.070312 -14.445312 14.140625 -14.332031 14.140625 -14.21875 C 14.140625 -14.144531 14.113281 -14.070312 14.0625 -14 L 12.796875 -12.171875 C 12.710938 -12.054688 12.601562 -12 12.46875 -12 C 12.375 -12 12.285156 -12.035156 12.203125 -12.109375 C 11.742188 -12.441406 11.269531 -12.695312 10.78125 -12.875 C 10.289062 -13.0625 9.757812 -13.15625 9.1875 -13.15625 C 8.445312 -13.15625 7.757812 -13.023438 7.125 -12.765625 C 6.5 -12.515625 5.945312 -12.15625 5.46875 -11.6875 C 5 -11.226562 4.632812 -10.679688 4.375 -10.046875 C 4.113281 -9.421875 3.984375 -8.738281 3.984375 -8 C 3.984375 -7.289062 4.109375 -6.617188 4.359375 -5.984375 C 4.617188 -5.347656 4.976562 -4.78125 5.4375 -4.28125 C 5.90625 -3.789062 6.445312 -3.398438 7.0625 -3.109375 C 7.675781 -2.828125 8.347656 -2.6875 9.078125 -2.6875 C 9.535156 -2.6875 9.988281 -2.742188 10.4375 -2.859375 C 10.894531 -2.972656 11.289062 -3.15625 11.625 -3.40625 L 11.625 -6.6875 C 11.625 -6.988281 11.769531 -7.140625 12.0625 -7.140625 L 13.96875 -7.140625 C 14.082031 -7.140625 14.179688 -7.101562 14.265625 -7.03125 C 14.347656 -6.957031 14.390625 -6.84375 14.390625 -6.6875 L 14.390625 -1.828125 C 14.390625 -1.640625 14.3125 -1.484375 14.15625 -1.359375 C 13.425781 -0.859375 12.632812 -0.46875 11.78125 -0.1875 C 10.9375 0.0820312 10.070312 0.21875 9.1875 0.21875 Z M 9.1875 0.21875 "/></g></g></g><g fill="#00bf63" fill-opacity="1"><g transform="translate(64.480383, 61.01454)"><g><path d="M 4.125 0 L 2.265625 0 C 1.921875 0 1.75 -0.175781 1.75 -0.53125 L 1.75 -10.046875 C 1.75 -10.359375 1.910156 -10.515625 2.234375 -10.515625 L 6.875 -10.515625 C 7.363281 -10.515625 7.816406 -10.421875 8.234375 -10.234375 C 8.660156 -10.054688 9.023438 -9.800781 9.328125 -9.46875 C 9.640625 -9.132812 9.882812 -8.753906 10.0625 -8.328125 C 10.238281 -7.898438 10.328125 -7.445312 10.328125 -6.96875 C 10.328125 -6.375 10.1875 -5.8125 9.90625 -5.28125 C 9.632812 -4.757812 9.257812 -4.335938 8.78125 -4.015625 L 10.34375 -0.65625 C 10.394531 -0.5625 10.421875 -0.484375 10.421875 -0.421875 C 10.421875 -0.304688 10.378906 -0.210938 10.296875 -0.140625 C 10.210938 -0.0664062 10.113281 -0.0234375 10 -0.015625 C 9.894531 -0.00390625 9.757812 0 9.59375 0 C 9.425781 0 9.238281 0 9.03125 0 L 8.046875 0 C 7.710938 0 7.445312 -0.179688 7.25 -0.546875 L 6.0625 -3.4375 L 4.640625 -3.4375 L 4.640625 -0.5 C 4.640625 -0.363281 4.59375 -0.242188 4.5 -0.140625 C 4.414062 -0.046875 4.289062 0 4.125 0 Z M 4.640625 -5.875 L 5.96875 -5.875 C 6.195312 -5.875 6.410156 -5.910156 6.609375 -5.984375 C 6.816406 -6.054688 6.984375 -6.171875 7.109375 -6.328125 C 7.242188 -6.492188 7.3125 -6.707031 7.3125 -6.96875 C 7.3125 -7.363281 7.175781 -7.65625 6.90625 -7.84375 C 6.644531 -8.03125 6.332031 -8.125 5.96875 -8.125 L 4.640625 -8.125 Z M 4.640625 -5.875 "/></g></g></g><g fill="#00bf63" fill-opacity="1"><g transform="translate(75.579865, 61.01454)"><g><path d="M 4.0625 0 L 2.203125 0 C 1.867188 0 1.703125 -0.164062 1.703125 -0.5 L 1.703125 -10.03125 C 1.703125 -10.175781 1.742188 -10.296875 1.828125 -10.390625 C 1.921875 -10.492188 2.046875 -10.546875 2.203125 -10.546875 L 4.0625 -10.546875 C 4.195312 -10.546875 4.320312 -10.492188 4.4375 -10.390625 C 4.550781 -10.296875 4.609375 -10.175781 4.609375 -10.03125 L 4.609375 -0.5 C 4.609375 -0.164062 4.425781 0 4.0625 0 Z M 4.0625 0 "/></g></g></g><g clip-path="url(#afafc11d6c)"><g fill="#00bf63" fill-opacity="1"><g transform="translate(81.896383, 61.01454)"><g><path d="M 6.203125 0 L 2.125 0 C 1.832031 -0.0078125 1.6875 -0.175781 1.6875 -0.5 L 1.6875 -10.046875 C 1.6875 -10.378906 1.859375 -10.546875 2.203125 -10.546875 L 6.140625 -10.546875 C 6.867188 -10.523438 7.539062 -10.378906 8.15625 -10.109375 C 8.78125 -9.835938 9.316406 -9.460938 9.765625 -8.984375 C 10.222656 -8.503906 10.578125 -7.945312 10.828125 -7.3125 C 11.078125 -6.6875 11.203125 -6.007812 11.203125 -5.28125 C 11.203125 -4.582031 11.078125 -3.914062 10.828125 -3.28125 C 10.585938 -2.644531 10.242188 -2.078125 9.796875 -1.578125 C 9.347656 -1.085938 8.820312 -0.703125 8.21875 -0.421875 C 7.613281 -0.140625 6.941406 0 6.203125 0 Z M 4.609375 -2.484375 L 5.75 -2.484375 C 6.300781 -2.484375 6.769531 -2.609375 7.15625 -2.859375 C 7.550781 -3.117188 7.847656 -3.460938 8.046875 -3.890625 C 8.253906 -4.316406 8.359375 -4.796875 8.359375 -5.328125 C 8.359375 -5.847656 8.242188 -6.316406 8.015625 -6.734375 C 7.796875 -7.160156 7.484375 -7.492188 7.078125 -7.734375 C 6.679688 -7.972656 6.210938 -8.09375 5.671875 -8.09375 L 4.609375 -8.09375 Z M 4.609375 -2.484375 "/></g></g></g></g><g mask="url(#a9e69c8c00)"><g transform="matrix(1, 0, 0, 1, 19, 4)"><g clip-path="url(#838968264e)"><g clip-path="url(#08e1eb9d52)"><path fill="#004aad" d="M 46.472656 5.886719 C 46.457031 5.726562 46.371094 5.585938 46.238281 5.496094 C 46.105469 5.402344 45.941406 5.382812 45.792969 5.429688 C 44.722656 5.773438 42.527344 6.339844 39.871094 6.269531 C 37.710938 6.222656 35.703125 5.761719 33.894531 4.90625 C 31.871094 3.949219 30.097656 2.488281 28.613281 0.566406 C 28.511719 0.433594 28.355469 0.363281 28.1875 0.363281 C 28.019531 0.363281 27.867188 0.445312 27.777344 0.585938 C 26.484375 2.445312 24.832031 3.867188 22.867188 4.800781 C 21.097656 5.648438 19.070312 6.109375 16.839844 6.179688 C 14.074219 6.261719 11.710938 5.726562 10.554688 5.402344 C 10.410156 5.363281 10.25 5.390625 10.117188 5.472656 C 9.988281 5.5625 9.90625 5.703125 9.890625 5.859375 C 9.675781 8.222656 9.585938 10.492188 9.625 12.667969 C 4.886719 12.933594 1.109375 16.875 1.109375 21.679688 C 1.109375 26.65625 5.160156 30.707031 10.136719 30.707031 C 11.382812 30.707031 12.570312 30.453125 13.648438 29.992188 C 13.757812 30.195312 13.871094 30.40625 13.980469 30.605469 C 17.128906 36.207031 21.847656 40.269531 28 42.660156 C 28.0625 42.679688 28.125 42.695312 28.1875 42.695312 C 28.246094 42.695312 28.308594 42.6875 28.363281 42.667969 C 35.296875 40.207031 40.128906 36.089844 43.144531 30.074219 C 46.210938 23.953125 47.304688 16.042969 46.472656 5.886719 Z M 13.242188 29.195312 C 12.285156 29.59375 11.234375 29.808594 10.136719 29.808594 C 5.65625 29.808594 2.007812 26.160156 2.007812 21.679688 C 2.007812 17.359375 5.398438 13.8125 9.65625 13.5625 C 9.816406 13.554688 9.976562 13.546875 10.144531 13.546875 C 10.332031 13.546875 10.515625 13.554688 10.703125 13.570312 C 14.925781 13.855469 18.273438 17.386719 18.273438 21.679688 C 18.273438 24.6875 16.640625 27.3125 14.207031 28.71875 C 13.898438 28.902344 13.570312 29.0625 13.242188 29.195312 Z M 28.195312 41.617188 C 23.980469 39.941406 18.335938 36.5 14.613281 29.515625 C 15.277344 29.140625 15.882812 28.675781 16.429688 28.144531 C 16.5625 28.019531 16.679688 27.886719 16.808594 27.753906 L 21.191406 27.753906 L 24.425781 33.691406 L 27.25 33.691406 C 27.355469 34.101562 27.734375 34.417969 28.179688 34.417969 C 28.714844 34.417969 29.140625 33.984375 29.140625 33.460938 C 29.140625 32.929688 28.714844 32.5 28.179688 32.5 C 27.734375 32.5 27.355469 32.808594 27.25 33.230469 L 24.707031 33.230469 L 21.464844 27.292969 L 17.207031 27.292969 C 17.34375 27.117188 17.484375 26.929688 17.609375 26.75 C 17.695312 26.621094 17.777344 26.488281 17.855469 26.355469 L 22.988281 26.355469 L 24.40625 28.78125 C 24.222656 28.957031 24.105469 29.210938 24.105469 29.480469 C 24.105469 30.007812 24.539062 30.441406 25.0625 30.441406 C 25.59375 30.441406 26.019531 30.007812 26.019531 29.480469 C 26.019531 28.949219 25.585938 28.523438 25.0625 28.523438 C 24.980469 28.523438 24.894531 28.539062 24.8125 28.558594 L 23.253906 25.882812 L 18.121094 25.882812 C 18.21875 25.699219 18.308594 25.519531 18.386719 25.335938 C 18.441406 25.210938 18.5 25.078125 18.546875 24.945312 L 29.816406 24.945312 L 31.40625 26 L 37.101562 26 C 37.207031 26.417969 37.585938 26.726562 38.03125 26.726562 C 38.5625 26.726562 38.988281 26.292969 38.988281 25.769531 C 38.988281 25.238281 38.558594 24.8125 38.03125 24.8125 C 37.585938 24.8125 37.207031 25.117188 37.101562 25.539062 L 31.542969 25.539062 L 29.957031 24.484375 L 18.714844 24.484375 C 18.769531 24.300781 18.828125 24.121094 18.875 23.9375 C 18.910156 23.8125 18.9375 23.679688 18.96875 23.546875 L 31.769531 23.546875 C 31.871094 23.957031 32.25 24.273438 32.699219 24.273438 C 33.230469 24.273438 33.65625 23.839844 33.65625 23.316406 C 33.65625 22.785156 33.222656 22.359375 32.699219 22.359375 C 32.25 22.359375 31.871094 22.664062 31.769531 23.085938 L 19.058594 23.085938 C 19.085938 22.902344 19.105469 22.722656 19.128906 22.539062 C 19.140625 22.414062 19.148438 22.28125 19.15625 22.148438 L 25.71875 22.148438 L 27.082031 20.164062 C 27.183594 20.195312 27.292969 20.21875 27.40625 20.21875 C 27.9375 20.21875 28.363281 19.785156 28.363281 19.261719 C 28.363281 18.730469 27.929688 18.300781 27.40625 18.300781 C 26.882812 18.300781 26.449219 18.734375 26.449219 19.261719 C 26.449219 19.503906 26.539062 19.730469 26.691406 19.902344 L 25.46875 21.679688 L 19.167969 21.679688 C 19.167969 21.496094 19.164062 21.308594 19.148438 21.132812 C 19.140625 21 19.128906 20.875 19.113281 20.742188 L 23.699219 20.742188 L 25.769531 17.261719 L 41.285156 17.261719 C 41.386719 17.671875 41.765625 17.988281 42.214844 17.988281 C 42.746094 17.988281 43.171875 17.554688 43.171875 17.03125 C 43.171875 16.5 42.746094 16.074219 42.214844 16.074219 C 41.765625 16.074219 41.386719 16.378906 41.285156 16.800781 L 25.503906 16.800781 L 23.433594 20.28125 L 19.050781 20.28125 C 19.023438 20.097656 18.988281 19.910156 18.945312 19.734375 C 18.917969 19.601562 18.882812 19.476562 18.847656 19.34375 L 22.492188 19.34375 L 24.875 15.183594 L 31.503906 15.183594 C 31.605469 15.597656 31.984375 15.910156 32.433594 15.910156 C 32.964844 15.910156 33.390625 15.476562 33.390625 14.953125 C 33.390625 14.429688 32.957031 13.996094 32.433594 13.996094 C 31.984375 13.996094 31.605469 14.304688 31.503906 14.722656 L 24.601562 14.722656 L 22.226562 18.882812 L 18.714844 18.882812 C 18.652344 18.695312 18.589844 18.511719 18.511719 18.335938 C 18.464844 18.203125 18.40625 18.078125 18.34375 17.945312 L 22.0625 17.945312 L 24.757812 13.261719 L 36.019531 13.261719 C 36.125 13.675781 36.5 13.988281 36.949219 13.988281 C 37.480469 13.988281 37.90625 13.554688 37.90625 13.03125 C 37.90625 12.5 37.472656 12.074219 36.949219 12.074219 C 36.5 12.074219 36.125 12.382812 36.019531 12.800781 L 24.484375 12.800781 L 21.792969 17.484375 L 18.105469 17.484375 C 18.007812 17.296875 17.90625 17.113281 17.792969 16.9375 C 17.707031 16.804688 17.625 16.679688 17.535156 16.546875 L 20.308594 16.546875 L 24.222656 9.269531 L 29.144531 9.269531 C 29.25 9.683594 29.628906 9.996094 30.078125 9.996094 C 30.609375 9.996094 31.035156 9.5625 31.035156 9.039062 C 31.035156 8.515625 30.609375 8.082031 30.078125 8.082031 C 29.628906 8.082031 29.25 8.390625 29.144531 8.808594 L 23.953125 8.808594 L 20.035156 16.09375 L 17.191406 16.09375 C 15.640625 14.15625 13.3125 12.871094 10.675781 12.714844 C 10.640625 10.800781 10.703125 8.773438 10.886719 6.613281 C 12.21875 6.949219 14.386719 7.347656 16.882812 7.269531 C 19.261719 7.199219 21.429688 6.695312 23.324219 5.789062 C 25.246094 4.863281 26.894531 3.523438 28.222656 1.78125 C 29.710938 3.570312 31.472656 4.949219 33.445312 5.886719 C 35.390625 6.800781 37.542969 7.296875 39.84375 7.355469 C 42.207031 7.410156 44.21875 6.996094 45.476562 6.648438 C 46.90625 25.707031 41.402344 36.84375 28.195312 41.617188 Z M 27.683594 33.453125 C 27.683594 33.179688 27.910156 32.964844 28.175781 32.964844 C 28.449219 32.964844 28.664062 33.179688 28.664062 33.453125 C 28.664062 33.726562 28.441406 33.941406 28.175781 33.941406 C 27.910156 33.949219 27.683594 33.726562 27.683594 33.453125 Z M 24.574219 29.476562 C 24.574219 29.203125 24.796875 28.984375 25.0625 28.984375 C 25.335938 28.984375 25.554688 29.210938 25.554688 29.476562 C 25.554688 29.746094 25.328125 29.964844 25.0625 29.964844 C 24.796875 29.964844 24.574219 29.742188 24.574219 29.476562 Z M 37.542969 25.761719 C 37.542969 25.488281 37.765625 25.273438 38.03125 25.273438 C 38.304688 25.273438 38.523438 25.496094 38.523438 25.761719 C 38.523438 26.035156 38.304688 26.25 38.03125 26.25 C 37.757812 26.257812 37.542969 26.035156 37.542969 25.761719 Z M 32.207031 23.308594 C 32.207031 23.035156 32.425781 22.820312 32.699219 22.820312 C 32.96875 22.820312 33.1875 23.042969 33.1875 23.308594 C 33.1875 23.582031 32.96875 23.796875 32.699219 23.796875 C 32.425781 23.796875 32.207031 23.574219 32.207031 23.308594 Z M 26.910156 19.253906 C 26.910156 18.980469 27.125 18.765625 27.398438 18.765625 C 27.671875 18.765625 27.886719 18.980469 27.886719 19.253906 C 27.886719 19.527344 27.664062 19.742188 27.398438 19.742188 C 27.125 19.742188 26.910156 19.519531 26.910156 19.253906 Z M 41.71875 17.007812 C 41.71875 16.738281 41.941406 16.519531 42.207031 16.519531 C 42.480469 16.519531 42.695312 16.742188 42.695312 17.007812 C 42.695312 17.28125 42.472656 17.5 42.207031 17.5 C 41.941406 17.5 41.71875 17.28125 41.71875 17.007812 Z M 31.941406 14.933594 C 31.941406 14.660156 32.167969 14.441406 32.433594 14.441406 C 32.703125 14.441406 32.921875 14.660156 32.921875 14.933594 C 32.921875 15.207031 32.703125 15.421875 32.433594 15.421875 C 32.160156 15.421875 31.941406 15.207031 31.941406 14.933594 Z M 36.460938 13.003906 C 36.460938 12.730469 36.675781 12.515625 36.949219 12.515625 C 37.222656 12.515625 37.4375 12.738281 37.4375 13.003906 C 37.4375 13.277344 37.214844 13.492188 36.949219 13.492188 C 36.675781 13.492188 36.460938 13.269531 36.460938 13.003906 Z M 29.585938 8.996094 C 29.585938 8.722656 29.8125 8.507812 30.078125 8.507812 C 30.347656 8.507812 30.566406 8.730469 30.566406 8.996094 C 30.566406 9.269531 30.34375 9.488281 30.078125 9.488281 C 29.804688 9.488281 29.585938 9.269531 29.585938 8.996094 Z M 29.585938 8.996094 " fill-opacity="1" fill-rule="nonzero"/></g><path fill="#004aad" d="M 13.449219 19.464844 L 12.90625 19.464844 L 12.90625 18.226562 C 12.90625 16.9375 12.011719 15.855469 10.808594 15.574219 C 10.605469 15.527344 10.394531 15.5 10.179688 15.5 C 10.039062 15.5 9.898438 15.507812 9.757812 15.535156 C 8.453125 15.738281 7.453125 16.871094 7.453125 18.226562 L 7.453125 19.464844 L 6.824219 19.464844 C 6.761719 19.464844 6.699219 19.46875 6.632812 19.484375 C 6.230469 19.566406 5.933594 19.929688 5.933594 20.351562 L 5.933594 23.886719 C 5.933594 24.59375 6.117188 25.203125 6.464844 25.683594 C 6.726562 26.042969 7.082031 26.328125 7.527344 26.546875 C 8.199219 26.875 9.074219 27.042969 10.136719 27.042969 C 10.921875 27.042969 11.597656 26.949219 12.171875 26.769531 C 12.5 26.664062 12.792969 26.53125 13.050781 26.371094 C 13.082031 26.347656 13.109375 26.335938 13.136719 26.316406 C 13.925781 25.785156 14.332031 24.964844 14.332031 23.886719 L 14.332031 20.351562 C 14.332031 19.863281 13.941406 19.464844 13.449219 19.464844 Z M 8.355469 18.226562 C 8.355469 17.335938 8.992188 16.597656 9.828125 16.4375 C 9.941406 16.414062 10.058594 16.402344 10.171875 16.402344 C 10.421875 16.402344 10.667969 16.449219 10.886719 16.546875 C 11.535156 16.828125 11.988281 17.46875 11.988281 18.21875 L 11.988281 19.457031 L 8.355469 19.457031 Z M 13.773438 23.886719 C 13.773438 24.714844 13.492188 25.34375 12.933594 25.769531 C 12.675781 25.972656 12.351562 26.132812 11.976562 26.246094 C 11.472656 26.398438 10.855469 26.476562 10.136719 26.476562 C 9.164062 26.476562 8.367188 26.328125 7.78125 26.042969 C 7.417969 25.867188 7.128906 25.636719 6.929688 25.351562 C 6.648438 24.964844 6.507812 24.476562 6.507812 23.886719 L 6.507812 20.351562 C 6.507812 20.195312 6.613281 20.070312 6.761719 20.035156 C 6.78125 20.03125 6.808594 20.03125 6.832031 20.03125 L 13.457031 20.03125 C 13.632812 20.03125 13.78125 20.175781 13.78125 20.351562 L 13.78125 23.886719 Z M 13.773438 23.886719 " fill-opacity="1" fill-rule="nonzero"/><path fill="#004aad" d="M 10.464844 23.089844 C 10.480469 23.070312 10.488281 23.050781 10.492188 23.027344 L 10.738281 22.085938 L 10.789062 21.902344 C 10.792969 21.867188 10.792969 21.832031 10.78125 21.804688 C 10.78125 21.796875 10.773438 21.792969 10.765625 21.785156 C 10.765625 21.785156 10.757812 21.777344 10.757812 21.777344 C 10.757812 21.777344 10.753906 21.769531 10.753906 21.769531 C 10.746094 21.761719 10.738281 21.757812 10.730469 21.757812 C 10.722656 21.75 10.71875 21.75 10.710938 21.742188 C 10.703125 21.742188 10.6875 21.734375 10.683594 21.734375 C 10.675781 21.734375 10.660156 21.734375 10.65625 21.726562 C 10.648438 21.726562 10.648438 21.726562 10.640625 21.726562 L 9.722656 21.726562 C 9.621094 21.726562 9.550781 21.8125 9.578125 21.917969 L 9.871094 23.042969 C 9.878906 23.0625 9.886719 23.085938 9.898438 23.105469 C 9.703125 23.210938 9.570312 23.414062 9.570312 23.652344 C 9.570312 23.992188 9.84375 24.265625 10.1875 24.265625 C 10.527344 24.265625 10.800781 23.992188 10.800781 23.652344 C 10.792969 23.398438 10.660156 23.195312 10.464844 23.089844 Z M 10.464844 23.089844 " fill-opacity="1" fill-rule="nonzero"/></g></g></g><g fill="#a6a6a6" fill-opacity="1"><g transform="translate(3.875159, 70.654579)"><g><path d="M 4.109375 0.09375 C 3.703125 0.09375 3.316406 0.0351562 2.953125 -0.078125 C 2.585938 -0.203125 2.25 -0.375 1.9375 -0.59375 C 1.632812 -0.820312 1.367188 -1.085938 1.140625 -1.390625 C 0.910156 -1.703125 0.734375 -2.039062 0.609375 -2.40625 C 0.484375 -2.78125 0.421875 -3.171875 0.421875 -3.578125 C 0.421875 -3.984375 0.484375 -4.367188 0.609375 -4.734375 C 0.734375 -5.097656 0.90625 -5.429688 1.125 -5.734375 C 1.34375 -6.035156 1.601562 -6.296875 1.90625 -6.515625 C 2.21875 -6.742188 2.554688 -6.914062 2.921875 -7.03125 C 3.296875 -7.15625 3.6875 -7.21875 4.09375 -7.21875 C 4.507812 -7.21875 4.890625 -7.15625 5.234375 -7.03125 C 5.585938 -6.914062 5.921875 -6.742188 6.234375 -6.515625 C 6.296875 -6.460938 6.328125 -6.410156 6.328125 -6.359375 C 6.328125 -6.328125 6.3125 -6.296875 6.28125 -6.265625 L 5.71875 -5.4375 C 5.6875 -5.394531 5.640625 -5.375 5.578125 -5.375 C 5.535156 -5.375 5.492188 -5.390625 5.453125 -5.421875 C 5.253906 -5.566406 5.039062 -5.679688 4.8125 -5.765625 C 4.59375 -5.847656 4.359375 -5.890625 4.109375 -5.890625 C 3.773438 -5.890625 3.46875 -5.832031 3.1875 -5.71875 C 2.90625 -5.601562 2.660156 -5.441406 2.453125 -5.234375 C 2.242188 -5.023438 2.078125 -4.78125 1.953125 -4.5 C 1.835938 -4.21875 1.78125 -3.910156 1.78125 -3.578125 C 1.78125 -3.265625 1.835938 -2.960938 1.953125 -2.671875 C 2.066406 -2.390625 2.226562 -2.132812 2.4375 -1.90625 C 2.644531 -1.6875 2.882812 -1.515625 3.15625 -1.390625 C 3.4375 -1.265625 3.738281 -1.203125 4.0625 -1.203125 C 4.257812 -1.203125 4.457031 -1.226562 4.65625 -1.28125 C 4.863281 -1.332031 5.046875 -1.414062 5.203125 -1.53125 L 5.203125 -3 C 5.203125 -3.125 5.265625 -3.1875 5.390625 -3.1875 L 6.25 -3.1875 C 6.300781 -3.1875 6.34375 -3.171875 6.375 -3.140625 C 6.414062 -3.109375 6.4375 -3.0625 6.4375 -3 L 6.4375 -0.8125 C 6.4375 -0.726562 6.398438 -0.660156 6.328125 -0.609375 C 6.003906 -0.378906 5.648438 -0.203125 5.265625 -0.078125 C 4.890625 0.0351562 4.503906 0.09375 4.109375 0.09375 Z M 4.109375 0.09375 "/></g></g></g><g fill="#a6a6a6" fill-opacity="1"><g transform="translate(10.839371, 70.654579)"><g><path d="M 1.84375 0 L 1.015625 0 C 0.859375 0 0.78125 -0.078125 0.78125 -0.234375 L 0.78125 -4.484375 C 0.78125 -4.628906 0.851562 -4.703125 1 -4.703125 L 3.078125 -4.703125 C 3.296875 -4.703125 3.5 -4.660156 3.6875 -4.578125 C 3.875 -4.492188 4.035156 -4.378906 4.171875 -4.234375 C 4.316406 -4.085938 4.425781 -3.914062 4.5 -3.71875 C 4.582031 -3.53125 4.625 -3.328125 4.625 -3.109375 C 4.625 -2.847656 4.5625 -2.597656 4.4375 -2.359375 C 4.3125 -2.128906 4.140625 -1.941406 3.921875 -1.796875 L 4.625 -0.296875 C 4.644531 -0.253906 4.65625 -0.21875 4.65625 -0.1875 C 4.65625 -0.132812 4.632812 -0.09375 4.59375 -0.0625 C 4.5625 -0.03125 4.519531 -0.0078125 4.46875 0 C 4.425781 0 4.363281 0 4.28125 0 C 4.207031 0 4.125 0 4.03125 0 L 3.59375 0 C 3.445312 0 3.332031 -0.0820312 3.25 -0.25 L 2.703125 -1.546875 L 2.078125 -1.546875 L 2.078125 -0.21875 C 2.078125 -0.15625 2.054688 -0.101562 2.015625 -0.0625 C 1.972656 -0.0195312 1.914062 0 1.84375 0 Z M 2.078125 -2.625 L 2.671875 -2.625 C 2.773438 -2.625 2.867188 -2.640625 2.953125 -2.671875 C 3.046875 -2.703125 3.117188 -2.753906 3.171875 -2.828125 C 3.234375 -2.898438 3.265625 -2.992188 3.265625 -3.109375 C 3.265625 -3.285156 3.207031 -3.414062 3.09375 -3.5 C 2.976562 -3.582031 2.835938 -3.625 2.671875 -3.625 L 2.078125 -3.625 Z M 2.078125 -2.625 "/></g></g></g><g fill="#a6a6a6" fill-opacity="1"><g transform="translate(15.803531, 70.654579)"><g><path d="M 1.8125 0 L 0.984375 0 C 0.835938 0 0.765625 -0.0703125 0.765625 -0.21875 L 0.765625 -4.484375 C 0.765625 -4.546875 0.78125 -4.597656 0.8125 -4.640625 C 0.851562 -4.691406 0.910156 -4.71875 0.984375 -4.71875 L 1.8125 -4.71875 C 1.875 -4.71875 1.929688 -4.691406 1.984375 -4.640625 C 2.035156 -4.597656 2.0625 -4.546875 2.0625 -4.484375 L 2.0625 -0.21875 C 2.0625 -0.0703125 1.976562 0 1.8125 0 Z M 1.8125 0 "/></g></g></g><g fill="#a6a6a6" fill-opacity="1"><g transform="translate(18.628544, 70.654579)"><g><path d="M 1.859375 0 L 1.015625 0 C 0.859375 0 0.78125 -0.078125 0.78125 -0.234375 L 0.78125 -4.484375 C 0.78125 -4.628906 0.859375 -4.703125 1.015625 -4.703125 L 2.90625 -4.703125 C 3.132812 -4.703125 3.34375 -4.65625 3.53125 -4.5625 C 3.71875 -4.476562 3.878906 -4.359375 4.015625 -4.203125 C 4.148438 -4.054688 4.253906 -3.882812 4.328125 -3.6875 C 4.410156 -3.488281 4.453125 -3.28125 4.453125 -3.0625 C 4.453125 -2.851562 4.410156 -2.648438 4.328125 -2.453125 C 4.253906 -2.265625 4.148438 -2.09375 4.015625 -1.9375 C 3.878906 -1.789062 3.71875 -1.671875 3.53125 -1.578125 C 3.351562 -1.484375 3.15625 -1.4375 2.9375 -1.4375 L 2.078125 -1.4375 L 2.078125 -0.21875 C 2.078125 -0.15625 2.054688 -0.101562 2.015625 -0.0625 C 1.984375 -0.0195312 1.929688 0 1.859375 0 Z M 2.078125 -2.578125 L 2.609375 -2.578125 C 2.703125 -2.578125 2.785156 -2.597656 2.859375 -2.640625 C 2.929688 -2.679688 2.988281 -2.738281 3.03125 -2.8125 C 3.082031 -2.894531 3.109375 -2.976562 3.109375 -3.0625 C 3.109375 -3.207031 3.0625 -3.328125 2.96875 -3.421875 C 2.875 -3.523438 2.753906 -3.578125 2.609375 -3.578125 L 2.078125 -3.578125 Z M 2.078125 -2.578125 "/></g></g></g><g fill="#a6a6a6" fill-opacity="1"><g transform="translate(23.357685, 70.654579)"><g/></g></g><g fill="#a6a6a6" fill-opacity="1"><g transform="translate(26.360162, 70.654579)"><g><path d="M 2.8125 0.09375 C 2.46875 0.09375 2.144531 0.0351562 1.84375 -0.078125 C 1.550781 -0.203125 1.289062 -0.375 1.0625 -0.59375 C 0.832031 -0.820312 0.648438 -1.082031 0.515625 -1.375 C 0.390625 -1.675781 0.328125 -2 0.328125 -2.34375 C 0.328125 -2.6875 0.390625 -3.003906 0.515625 -3.296875 C 0.648438 -3.597656 0.828125 -3.859375 1.046875 -4.078125 C 1.273438 -4.304688 1.539062 -4.484375 1.84375 -4.609375 C 2.144531 -4.742188 2.46875 -4.8125 2.8125 -4.8125 C 3.15625 -4.8125 3.472656 -4.742188 3.765625 -4.609375 C 4.066406 -4.484375 4.332031 -4.304688 4.5625 -4.078125 C 4.789062 -3.859375 4.96875 -3.597656 5.09375 -3.296875 C 5.226562 -3.003906 5.296875 -2.6875 5.296875 -2.34375 C 5.296875 -2 5.226562 -1.675781 5.09375 -1.375 C 4.96875 -1.082031 4.789062 -0.820312 4.5625 -0.59375 C 4.332031 -0.375 4.066406 -0.203125 3.765625 -0.078125 C 3.472656 0.0351562 3.15625 0.09375 2.8125 0.09375 Z M 2.8125 -1.078125 C 3.039062 -1.078125 3.25 -1.132812 3.4375 -1.25 C 3.625 -1.363281 3.769531 -1.515625 3.875 -1.703125 C 3.976562 -1.898438 4.03125 -2.113281 4.03125 -2.34375 C 4.03125 -2.507812 4 -2.664062 3.9375 -2.8125 C 3.875 -2.96875 3.785156 -3.101562 3.671875 -3.21875 C 3.566406 -3.332031 3.441406 -3.421875 3.296875 -3.484375 C 3.148438 -3.554688 2.988281 -3.59375 2.8125 -3.59375 C 2.644531 -3.59375 2.488281 -3.554688 2.34375 -3.484375 C 2.195312 -3.421875 2.066406 -3.332031 1.953125 -3.21875 C 1.847656 -3.101562 1.765625 -2.96875 1.703125 -2.8125 C 1.640625 -2.664062 1.609375 -2.507812 1.609375 -2.34375 C 1.609375 -2.113281 1.660156 -1.898438 1.765625 -1.703125 C 1.867188 -1.515625 2.007812 -1.363281 2.1875 -1.25 C 2.375 -1.132812 2.582031 -1.078125 2.8125 -1.078125 Z M 2.8125 -1.078125 "/></g></g></g><g fill="#a6a6a6" fill-opacity="1"><g transform="translate(32.019782, 70.654579)"><g><path d="M 1.859375 0 L 1.015625 0 C 0.859375 0 0.78125 -0.078125 0.78125 -0.234375 L 0.78125 -4.484375 C 0.78125 -4.628906 0.859375 -4.703125 1.015625 -4.703125 L 2.90625 -4.703125 C 3.132812 -4.703125 3.34375 -4.65625 3.53125 -4.5625 C 3.71875 -4.476562 3.878906 -4.359375 4.015625 -4.203125 C 4.148438 -4.054688 4.253906 -3.882812 4.328125 -3.6875 C 4.410156 -3.488281 4.453125 -3.28125 4.453125 -3.0625 C 4.453125 -2.851562 4.410156 -2.648438 4.328125 -2.453125 C 4.253906 -2.265625 4.148438 -2.09375 4.015625 -1.9375 C 3.878906 -1.789062 3.71875 -1.671875 3.53125 -1.578125 C 3.351562 -1.484375 3.15625 -1.4375 2.9375 -1.4375 L 2.078125 -1.4375 L 2.078125 -0.21875 C 2.078125 -0.15625 2.054688 -0.101562 2.015625 -0.0625 C 1.984375 -0.0195312 1.929688 0 1.859375 0 Z M 2.078125 -2.578125 L 2.609375 -2.578125 C 2.703125 -2.578125 2.785156 -2.597656 2.859375 -2.640625 C 2.929688 -2.679688 2.988281 -2.738281 3.03125 -2.8125 C 3.082031 -2.894531 3.109375 -2.976562 3.109375 -3.0625 C 3.109375 -3.207031 3.0625 -3.328125 2.96875 -3.421875 C 2.875 -3.523438 2.753906 -3.578125 2.609375 -3.578125 L 2.078125 -3.578125 Z M 2.078125 -2.578125 "/></g></g></g><g fill="#a6a6a6" fill-opacity="1"><g transform="translate(36.748925, 70.654579)"><g/></g></g><g fill="#a6a6a6" fill-opacity="1"><g transform="translate(39.751404, 70.654579)"><g><path d="M 4.15625 0 L 0.953125 0 C 0.828125 -0.0078125 0.765625 -0.0820312 0.765625 -0.21875 L 0.765625 -4.484375 C 0.765625 -4.628906 0.835938 -4.703125 0.984375 -4.703125 L 4.046875 -4.703125 C 4.109375 -4.703125 4.160156 -4.679688 4.203125 -4.640625 C 4.242188 -4.597656 4.265625 -4.546875 4.265625 -4.484375 L 4.265625 -3.828125 C 4.265625 -3.753906 4.242188 -3.695312 4.203125 -3.65625 C 4.160156 -3.613281 4.109375 -3.59375 4.046875 -3.59375 L 2.046875 -3.59375 L 2.046875 -2.875 L 3.625 -2.875 C 3.695312 -2.875 3.75 -2.851562 3.78125 -2.8125 C 3.820312 -2.769531 3.84375 -2.710938 3.84375 -2.640625 L 3.84375 -2.0625 C 3.84375 -2 3.820312 -1.945312 3.78125 -1.90625 C 3.75 -1.863281 3.695312 -1.84375 3.625 -1.84375 L 2.046875 -1.84375 L 2.046875 -1.140625 L 4.15625 -1.140625 C 4.21875 -1.140625 4.269531 -1.117188 4.3125 -1.078125 C 4.351562 -1.035156 4.375 -0.976562 4.375 -0.90625 L 4.375 -0.21875 C 4.375 -0.15625 4.351562 -0.101562 4.3125 -0.0625 C 4.269531 -0.0195312 4.21875 0 4.15625 0 Z M 4.15625 0 "/></g></g></g><g fill="#a6a6a6" fill-opacity="1"><g transform="translate(44.499726, 70.654579)"><g><path d="M 4.21875 0 L 0.96875 0 C 0.820312 0 0.75 -0.0703125 0.75 -0.21875 L 0.75 -4.484375 C 0.75 -4.546875 0.769531 -4.597656 0.8125 -4.640625 C 0.851562 -4.679688 0.910156 -4.703125 0.984375 -4.703125 L 1.828125 -4.703125 C 1.890625 -4.703125 1.941406 -4.679688 1.984375 -4.640625 C 2.023438 -4.597656 2.046875 -4.546875 2.046875 -4.484375 L 2.046875 -1.296875 L 4.21875 -1.296875 C 4.28125 -1.296875 4.332031 -1.269531 4.375 -1.21875 C 4.414062 -1.175781 4.4375 -1.117188 4.4375 -1.046875 L 4.4375 -0.21875 C 4.4375 -0.15625 4.414062 -0.101562 4.375 -0.0625 C 4.332031 -0.0195312 4.28125 0 4.21875 0 Z M 4.21875 0 "/></g></g></g><g fill="#a6a6a6" fill-opacity="1"><g transform="translate(49.296016, 70.654579)"><g><path d="M 1.875 0 L 0.984375 0 C 0.859375 0 0.796875 -0.0625 0.796875 -0.1875 L 0.796875 -4.515625 C 0.796875 -4.640625 0.859375 -4.703125 0.984375 -4.703125 L 1.875 -4.703125 C 1.925781 -4.703125 1.972656 -4.6875 2.015625 -4.65625 C 2.054688 -4.625 2.078125 -4.582031 2.078125 -4.53125 L 2.078125 -2.75 L 3.671875 -4.578125 C 3.722656 -4.628906 3.769531 -4.660156 3.8125 -4.671875 C 3.851562 -4.691406 3.910156 -4.703125 3.984375 -4.703125 L 5.125 -4.703125 C 5.21875 -4.703125 5.265625 -4.675781 5.265625 -4.625 C 5.253906 -4.5625 5.226562 -4.507812 5.1875 -4.46875 C 4.90625 -4.144531 4.625 -3.828125 4.34375 -3.515625 C 4.0625 -3.210938 3.78125 -2.910156 3.5 -2.609375 L 5.359375 -0.265625 C 5.421875 -0.191406 5.453125 -0.128906 5.453125 -0.078125 C 5.453125 -0.0234375 5.414062 0 5.34375 0 L 4.234375 0 C 4.085938 0 3.984375 -0.0234375 3.921875 -0.078125 C 3.867188 -0.109375 3.820312 -0.148438 3.78125 -0.203125 C 3.75 -0.253906 3.722656 -0.289062 3.703125 -0.3125 L 2.625 -1.734375 L 2.078125 -1.140625 L 2.078125 -0.1875 C 2.078125 -0.0625 2.007812 0 1.875 0 Z M 1.875 0 "/></g></g></g><g fill="#a6a6a6" fill-opacity="1"><g transform="translate(55.037173, 70.654579)"><g><path d="M 4.15625 0 L 0.953125 0 C 0.828125 -0.0078125 0.765625 -0.0820312 0.765625 -0.21875 L 0.765625 -4.484375 C 0.765625 -4.628906 0.835938 -4.703125 0.984375 -4.703125 L 4.046875 -4.703125 C 4.109375 -4.703125 4.160156 -4.679688 4.203125 -4.640625 C 4.242188 -4.597656 4.265625 -4.546875 4.265625 -4.484375 L 4.265625 -3.828125 C 4.265625 -3.753906 4.242188 -3.695312 4.203125 -3.65625 C 4.160156 -3.613281 4.109375 -3.59375 4.046875 -3.59375 L 2.046875 -3.59375 L 2.046875 -2.875 L 3.625 -2.875 C 3.695312 -2.875 3.75 -2.851562 3.78125 -2.8125 C 3.820312 -2.769531 3.84375 -2.710938 3.84375 -2.640625 L 3.84375 -2.0625 C 3.84375 -2 3.820312 -1.945312 3.78125 -1.90625 C 3.75 -1.863281 3.695312 -1.84375 3.625 -1.84375 L 2.046875 -1.84375 L 2.046875 -1.140625 L 4.15625 -1.140625 C 4.21875 -1.140625 4.269531 -1.117188 4.3125 -1.078125 C 4.351562 -1.035156 4.375 -0.976562 4.375 -0.90625 L 4.375 -0.21875 C 4.375 -0.15625 4.351562 -0.101562 4.3125 -0.0625 C 4.269531 -0.0195312 4.21875 0 4.15625 0 Z M 4.15625 0 "/></g></g></g><g fill="#a6a6a6" fill-opacity="1"><g transform="translate(59.785502, 70.654579)"><g/></g></g><g fill="#a6a6a6" fill-opacity="1"><g transform="translate(62.787977, 70.654579)"><g><path d="M 2.78125 0 L 0.953125 0 C 0.828125 0 0.765625 -0.0703125 0.765625 -0.21875 L 0.765625 -4.484375 C 0.765625 -4.640625 0.835938 -4.71875 0.984375 -4.71875 L 2.75 -4.71875 C 3.070312 -4.707031 3.367188 -4.640625 3.640625 -4.515625 C 3.921875 -4.398438 4.160156 -4.234375 4.359375 -4.015625 C 4.566406 -3.796875 4.726562 -3.546875 4.84375 -3.265625 C 4.957031 -2.984375 5.015625 -2.679688 5.015625 -2.359375 C 5.015625 -2.046875 4.957031 -1.75 4.84375 -1.46875 C 4.738281 -1.1875 4.582031 -0.929688 4.375 -0.703125 C 4.175781 -0.484375 3.941406 -0.3125 3.671875 -0.1875 C 3.398438 -0.0625 3.101562 0 2.78125 0 Z M 2.0625 -1.109375 L 2.578125 -1.109375 C 2.816406 -1.109375 3.023438 -1.164062 3.203125 -1.28125 C 3.378906 -1.394531 3.507812 -1.546875 3.59375 -1.734375 C 3.6875 -1.929688 3.734375 -2.144531 3.734375 -2.375 C 3.734375 -2.613281 3.679688 -2.828125 3.578125 -3.015625 C 3.484375 -3.203125 3.34375 -3.347656 3.15625 -3.453125 C 2.976562 -3.566406 2.769531 -3.625 2.53125 -3.625 L 2.0625 -3.625 Z M 2.0625 -1.109375 "/></g></g></g><g fill="#a6a6a6" fill-opacity="1"><g transform="translate(67.862455, 70.654579)"><g><path d="M 1.8125 0 L 0.984375 0 C 0.835938 0 0.765625 -0.0703125 0.765625 -0.21875 L 0.765625 -4.484375 C 0.765625 -4.546875 0.78125 -4.597656 0.8125 -4.640625 C 0.851562 -4.691406 0.910156 -4.71875 0.984375 -4.71875 L 1.8125 -4.71875 C 1.875 -4.71875 1.929688 -4.691406 1.984375 -4.640625 C 2.035156 -4.597656 2.0625 -4.546875 2.0625 -4.484375 L 2.0625 -0.21875 C 2.0625 -0.0703125 1.976562 0 1.8125 0 Z M 1.8125 0 "/></g></g></g><g fill="#a6a6a6" fill-opacity="1"><g transform="translate(70.687464, 70.654579)"><g><path d="M 4.15625 0 L 0.953125 0 C 0.828125 -0.0078125 0.765625 -0.0820312 0.765625 -0.21875 L 0.765625 -4.484375 C 0.765625 -4.628906 0.835938 -4.703125 0.984375 -4.703125 L 4.046875 -4.703125 C 4.109375 -4.703125 4.160156 -4.679688 4.203125 -4.640625 C 4.242188 -4.597656 4.265625 -4.546875 4.265625 -4.484375 L 4.265625 -3.828125 C 4.265625 -3.753906 4.242188 -3.695312 4.203125 -3.65625 C 4.160156 -3.613281 4.109375 -3.59375 4.046875 -3.59375 L 2.046875 -3.59375 L 2.046875 -2.875 L 3.625 -2.875 C 3.695312 -2.875 3.75 -2.851562 3.78125 -2.8125 C 3.820312 -2.769531 3.84375 -2.710938 3.84375 -2.640625 L 3.84375 -2.0625 C 3.84375 -2 3.820312 -1.945312 3.78125 -1.90625 C 3.75 -1.863281 3.695312 -1.84375 3.625 -1.84375 L 2.046875 -1.84375 L 2.046875 -1.140625 L 4.15625 -1.140625 C 4.21875 -1.140625 4.269531 -1.117188 4.3125 -1.078125 C 4.351562 -1.035156 4.375 -0.976562 4.375 -0.90625 L 4.375 -0.21875 C 4.375 -0.15625 4.351562 -0.101562 4.3125 -0.0625 C 4.269531 -0.0195312 4.21875 0 4.15625 0 Z M 4.15625 0 "/></g></g></g><g fill="#a6a6a6" fill-opacity="1"><g transform="translate(75.435793, 70.654579)"><g><path d="M 1.84375 0 L 0.984375 0 C 0.835938 0 0.765625 -0.0703125 0.765625 -0.21875 L 0.765625 -4.46875 C 0.765625 -4.539062 0.785156 -4.597656 0.828125 -4.640625 C 0.867188 -4.679688 0.921875 -4.703125 0.984375 -4.703125 L 2.0625 -4.703125 C 2.144531 -4.703125 2.21875 -4.664062 2.28125 -4.59375 L 4.125 -2.046875 L 4.125 -4.515625 C 4.144531 -4.640625 4.21875 -4.703125 4.34375 -4.703125 L 5.203125 -4.703125 C 5.265625 -4.703125 5.316406 -4.679688 5.359375 -4.640625 C 5.410156 -4.597656 5.4375 -4.546875 5.4375 -4.484375 L 5.4375 -0.21875 C 5.4375 -0.0703125 5.359375 0 5.203125 0 L 4.15625 0 C 4.09375 0 4.035156 -0.0351562 3.984375 -0.109375 L 2.078125 -2.71875 L 2.078125 -0.21875 C 2.078125 -0.0703125 2 0 1.84375 0 Z M 1.84375 0 "/></g></g></g><g fill="#a6a6a6" fill-opacity="1"><g transform="translate(81.594226, 70.654579)"><g><path d="M 2.25 0.109375 C 1.914062 0.109375 1.601562 0.046875 1.3125 -0.078125 C 1.019531 -0.203125 0.769531 -0.375 0.5625 -0.59375 C 0.488281 -0.664062 0.4375 -0.738281 0.40625 -0.8125 C 0.394531 -0.832031 0.390625 -0.863281 0.390625 -0.90625 C 0.390625 -0.96875 0.410156 -1.015625 0.453125 -1.046875 L 1.046875 -1.515625 C 1.078125 -1.546875 1.113281 -1.5625 1.15625 -1.5625 C 1.1875 -1.5625 1.222656 -1.546875 1.265625 -1.515625 C 1.316406 -1.484375 1.363281 -1.445312 1.40625 -1.40625 C 1.445312 -1.375 1.476562 -1.347656 1.5 -1.328125 C 1.601562 -1.242188 1.71875 -1.164062 1.84375 -1.09375 C 1.976562 -1.019531 2.113281 -0.984375 2.25 -0.984375 C 2.40625 -0.984375 2.535156 -1.015625 2.640625 -1.078125 C 2.753906 -1.148438 2.8125 -1.269531 2.8125 -1.4375 C 2.8125 -1.5625 2.71875 -1.675781 2.53125 -1.78125 C 2.445312 -1.832031 2.359375 -1.867188 2.265625 -1.890625 C 2.171875 -1.921875 2.113281 -1.941406 2.09375 -1.953125 C 1.894531 -2.003906 1.703125 -2.066406 1.515625 -2.140625 C 1.328125 -2.210938 1.15625 -2.304688 1 -2.421875 C 0.851562 -2.535156 0.734375 -2.671875 0.640625 -2.828125 C 0.554688 -2.992188 0.515625 -3.195312 0.515625 -3.4375 C 0.515625 -3.613281 0.554688 -3.785156 0.640625 -3.953125 C 0.722656 -4.117188 0.84375 -4.265625 1 -4.390625 C 1.15625 -4.515625 1.34375 -4.613281 1.5625 -4.6875 C 1.789062 -4.757812 2.035156 -4.796875 2.296875 -4.796875 C 2.609375 -4.796875 2.890625 -4.742188 3.140625 -4.640625 C 3.398438 -4.546875 3.632812 -4.40625 3.84375 -4.21875 C 3.957031 -4.113281 4.015625 -4.019531 4.015625 -3.9375 C 4.015625 -3.914062 4 -3.890625 3.96875 -3.859375 C 3.9375 -3.828125 3.890625 -3.78125 3.828125 -3.71875 C 3.765625 -3.664062 3.691406 -3.601562 3.609375 -3.53125 C 3.535156 -3.46875 3.460938 -3.414062 3.390625 -3.375 C 3.328125 -3.332031 3.285156 -3.3125 3.265625 -3.3125 C 3.210938 -3.3125 3.15625 -3.335938 3.09375 -3.390625 C 3 -3.492188 2.882812 -3.578125 2.75 -3.640625 C 2.613281 -3.703125 2.472656 -3.734375 2.328125 -3.734375 C 2.253906 -3.734375 2.175781 -3.722656 2.09375 -3.703125 C 2.019531 -3.691406 1.957031 -3.660156 1.90625 -3.609375 C 1.851562 -3.566406 1.828125 -3.503906 1.828125 -3.421875 C 1.828125 -3.316406 1.894531 -3.222656 2.03125 -3.140625 C 2.082031 -3.109375 2.15625 -3.070312 2.25 -3.03125 C 2.351562 -3 2.457031 -2.96875 2.5625 -2.9375 C 2.75 -2.875 2.9375 -2.800781 3.125 -2.71875 C 3.320312 -2.632812 3.5 -2.53125 3.65625 -2.40625 C 3.820312 -2.289062 3.953125 -2.148438 4.046875 -1.984375 C 4.140625 -1.816406 4.1875 -1.617188 4.1875 -1.390625 C 4.1875 -1.128906 4.128906 -0.90625 4.015625 -0.71875 C 3.898438 -0.53125 3.75 -0.375 3.5625 -0.25 C 3.375 -0.125 3.164062 -0.0351562 2.9375 0.015625 C 2.707031 0.078125 2.476562 0.109375 2.25 0.109375 Z M 2.25 0.109375 "/></g></g></g><g fill="#a6a6a6" fill-opacity="1"><g transform="translate(86.083556, 70.654579)"><g><path d="M 2.453125 0 L 1.53125 0 C 1.382812 0 1.3125 -0.0703125 1.3125 -0.21875 L 1.3125 -3.5 L 0.3125 -3.5 C 0.1875 -3.5 0.125 -3.566406 0.125 -3.703125 L 0.125 -4.53125 C 0.125 -4.644531 0.1875 -4.703125 0.3125 -4.703125 L 3.703125 -4.703125 C 3.816406 -4.703125 3.875 -4.644531 3.875 -4.53125 L 3.875 -3.703125 C 3.875 -3.660156 3.859375 -3.613281 3.828125 -3.5625 C 3.796875 -3.519531 3.753906 -3.5 3.703125 -3.5 L 2.6875 -3.5 L 2.6875 -0.21875 C 2.6875 -0.0703125 2.609375 0 2.453125 0 Z M 2.453125 0 "/></g></g></g></g></g></svg>